<?xml version="1.0" encoding="UTF-8"?>
<svg  viewBox="0 0 127 146" version="1.1" xmlns="http://www.w3.org/2000/svg" xmlns:xlink="http://www.w3.org/1999/xlink">
    <title>编组</title>
    <defs>
        <path d="M15.0739777,2.03735584 C14.2945072,3.19671641 14.1759912,4.75552528 14.0814064,5.97420984 L14.0814064,5.97420984 C13.9868215,7.19289441 13.0643342,6.76971651 12.6632032,5.97420984 L12.6632032,5.97420984 C12.2615024,5.1775732 11.8125092,4.35777194 11.2455698,3.63119412 L11.2455698,3.63119412 C10.5908829,2.79274818 9.14362054,3.31310446 7.84222395,4.09957127 L7.84222395,4.09957127 C5.90494356,5.27136163 3.49416905,7.94263684 2.26570537,10.2856526 L2.26570537,10.2856526 C1.15119935,12.4105819 -0.57013125,17.3158297 0.18597789,22.0024261 L0.18597789,22.0024261 C0.847502164,22.2837914 1.85602754,23.8064409 2.17055071,24.9081724 L2.17055071,24.9081724 C2.48564367,26.009339 2.64347504,29.2196151 2.64347504,29.2196151 L2.64347504,29.2196151 L3.49416905,30.1563694 C3.49416905,30.1563694 4.53403279,25.2827611 4.81778739,23.0335338 L4.81778739,23.0335338 C7.77897744,22.2600618 10.4894606,19.565057 12.1908486,16.5655223 L12.1908486,16.5655223 C13.5138972,17.9723487 16.1611339,19.2842567 18.618631,20.1277876 L18.618631,20.1277876 C21.0761282,20.9713184 24.6680739,21.8148493 28.1654348,20.4091528 L28.1654348,20.4091528 C30.3397471,21.533484 32.8918292,22.5651567 36.5783598,22.0024261 L36.5783598,22.0024261 C36.9566993,24.157865 37.3350387,25.5641264 37.0512841,28.751238 L37.0512841,28.751238 L38.3743327,31.1880421 L37.6187933,34 L38.6586571,33.9062116 C38.9418419,32.5005151 40.1737243,30.1552395 40.4546299,29.7817807 L40.4546299,29.7817807 C41.0215693,28.1885074 41.9668482,25.470338 42.6289423,22.5651567 L42.6289423,22.5651567 C43.2904666,19.6588454 42.974234,17.0531091 42.4072946,14.7095284 L42.4072946,14.7095284 C41.8397854,12.3665127 41.1611675,10.854033 38.5817356,8.03586028 L38.5817356,8.03586028 C36.2085672,5.44255376 34.5003417,4.2408189 31.5687806,2.78766327 L31.5687806,2.78766327 C28.6383591,1.33450763 24.3843193,0.444647546 21.0761282,0.069493835 L21.0761282,0.069493835 C20.6596129,0.0220346306 20.2641798,0 19.8903986,0 L19.8903986,0 C17.2984314,0 15.7349322,1.05483732 15.0739777,2.03735584" id="path-1"></path>
        <linearGradient x1="-0.0004644473%" y1="49.9999465%" x2="99.9992665%" y2="49.9999465%" id="linearGradient-3">
            <stop stop-color="#BFEDFF" offset="0%"></stop>
            <stop stop-color="#E8FFF6" offset="100%"></stop>
        </linearGradient>
        <path d="M0,4.50336952 C1.85714286,7.48483714 2.72358564,8.72706851 3.83798329,9.84518907 L3.83798329,9.84518907 L2.72358564,14.1924373 L9.50232498,15 L8.66666667,10.0934107 C10.7712047,8.47884687 12.0092999,6.98783227 13,5.7456009 L13,5.7456009 C10.6475071,3.13646574 8.57375355,1.33601647 6.53078447,0 L6.53078447,0 C4.70498579,0.90134781 1.85714286,2.8882441 0,4.50336952" id="path-4"></path>
        <linearGradient x1="0.000537759408%" y1="50.0014961%" x2="99.9992396%" y2="50.0014961%" id="linearGradient-6">
            <stop stop-color="#BFEDFF" offset="0%"></stop>
            <stop stop-color="#E8FFF6" offset="100%"></stop>
        </linearGradient>
        <path d="M0.822814667,6.81157154 C0.822814667,9.66470781 0.380244443,14.3905269 0,18.8699841 L0,18.8699841 L0.727896505,22 L14.3881066,22 C14.3881066,22 15.2417983,19.0542006 16,15.4641983 L16,15.4641983 C15.8101637,12.7952786 15.7158173,5.89104391 15.2417983,0 L15.2417983,0 C12.7750697,1.47262226 3.19405332,5.89104391 0.822814667,6.81157154" id="path-7"></path>
        <linearGradient x1="0.00294260596%" y1="49.9998752%" x2="100.001151%" y2="49.9998752%" id="linearGradient-9">
            <stop stop-color="#BFEDFF" offset="0%"></stop>
            <stop stop-color="#E8FFF6" offset="100%"></stop>
        </linearGradient>
        <path d="M0.0567122369,0.390537924 C-0.0947969575,0.717150107 0.0676995448,1.09694421 0.41987168,1.23715108 L0.41987168,1.23715108 C1.30868707,1.5922344 2.07779863,2.17025201 2.64162101,2.90620381 L2.64162101,2.90620381 C3.20717823,3.6421556 3.54258026,4.50595888 3.61370863,5.40253081 L3.61370863,5.40253081 C3.64204432,5.75761412 3.97455495,6.0240609 4.35679761,5.99827573 L4.35679761,5.99827573 C4.46320102,5.99075505 4.56208679,5.96174674 4.6488287,5.91608549 L4.6488287,5.91608549 C4.87435765,5.79682907 5.01834921,5.56422533 4.99810943,5.30852237 L4.99810943,5.30852237 C4.90789785,4.17558636 4.48459735,3.08616282 3.77273545,2.15789662 L3.77273545,2.15789662 C3.06087355,1.22963041 2.09052077,0.50173648 0.9686588,0.0531819181 L0.9686588,0.0531819181 C0.879025498,0.0171901149 0.785922519,0 0.694554379,0 L0.694554379,0 C0.426232753,0 0.170054993,0.145578786 0.0567122369,0.390537924" id="path-10"></path>
        <linearGradient x1="-0.000950045059%" y1="50.0028391%" x2="99.9933637%" y2="50.0028391%" id="linearGradient-12">
            <stop stop-color="#BFEDFF" offset="0%"></stop>
            <stop stop-color="#E8FFF6" offset="100%"></stop>
        </linearGradient>
        <path d="M0.0559632189,0.42480509 C-0.0934693294,0.781149855 0.0667587261,1.19425233 0.412783144,1.34755664 L0.412783144,1.34755664 C2.14517797,2.11524848 3.64348075,3.36274773 4.7440543,4.95430399 L4.7440543,4.95430399 C5.84519605,6.54586025 6.50031288,8.4112578 6.63838174,10.3492116 L6.63838174,10.3492116 C6.66622279,10.7359832 6.99292893,11.0262081 7.36849894,10.9981219 L7.36849894,10.9981219 C7.47304491,10.98993 7.57020447,10.9577478 7.65600035,10.9080117 L7.65600035,10.9080117 C7.87645597,10.7781126 8.01850212,10.5247509 7.99804747,10.2456434 L7.99804747,10.2456434 C7.84122853,8.05198738 7.10031582,5.94024968 5.85542337,4.13921653 L5.85542337,4.13921653 C4.60882637,2.33876852 2.91393173,0.927432599 0.951422139,0.0573428358 L0.951422139,0.0573428358 C0.863353527,0.0181390603 0.772443992,0 0.682670826,0 L0.682670826,0 C0.41846499,0 0.167327399,0.159155626 0.0559632189,0.42480509" id="path-13"></path>
        <linearGradient x1="-0.000333211815%" y1="50.0005532%" x2="100.000446%" y2="50.0005532%" id="linearGradient-15">
            <stop stop-color="#BFEDFF" offset="0%"></stop>
            <stop stop-color="#E8FFF6" offset="100%"></stop>
        </linearGradient>
        <path d="M0.0568603724,0.412907485 C-0.0948209808,0.759272029 0.0672812287,1.16080465 0.420432471,1.3092466 L0.420432471,1.3092466 C3.25722114,2.50872578 5.70901706,4.45667087 7.5118252,6.94207819 L7.5118252,6.94207819 C9.31347547,9.4274855 10.3856658,12.3405876 10.6131878,15.3674384 L10.6131878,15.3674384 C10.6409768,15.7433775 10.9744442,16.0254741 11.3565422,15.9981745 L11.3565422,15.9981745 C11.4630666,15.9902121 11.5626436,15.9589312 11.6494841,15.910588 L11.6494841,15.910588 C11.8746904,15.7843271 12.0188456,15.5380613 11.9980038,15.2673396 L11.9980038,15.2673396 C11.7531137,11.9913794 10.5929251,8.8388364 8.64422492,6.14981906 L8.64422492,6.14981906 C6.69320904,3.46080172 4.03994323,1.35360856 0.969843174,0.05516808 L0.969843174,0.05516808 C0.880108022,0.0176310359 0.787478188,1.61646509e-14 0.696006227,1.61646509e-14 L0.696006227,1.61646509e-14 C0.426221835,1.61646509e-14 0.170331919,0.154129378 0.0568603724,0.412907485" id="path-16"></path>
        <linearGradient x1="-0.00163057144%" y1="50.000171%" x2="100.001783%" y2="50.000171%" id="linearGradient-18">
            <stop stop-color="#BFEDFF" offset="0%"></stop>
            <stop stop-color="#E8FFF6" offset="100%"></stop>
        </linearGradient>
        <path d="M0.0543066693,0.403137832 C-0.0908001923,0.741307171 0.064829686,1.13278399 0.402673906,1.27826899 L0.402673906,1.27826899 C4.37428194,2.99188242 7.80700075,5.77497721 10.3297555,9.32603291 L10.3297555,9.32603291 C12.8563872,12.8815309 14.3578556,17.0506202 14.6729922,21.3818531 L14.6729922,21.3818531 C14.6995767,21.7488974 15.0180364,22.0248746 15.3835728,21.9982209 L15.3835728,21.9982209 C15.4860337,21.9910022 15.5818485,21.9604614 15.6643712,21.9127068 L15.6643712,21.9127068 C15.8609854,21.800539 15.9933539,21.5911961 16,21.3546441 L16,21.3546441 L16,21.3146635 C16,21.3046683 15.9994462,21.2952285 15.9988923,21.2852333 L15.9988923,21.2852333 C15.6665865,16.7096744 14.0809341,12.3073649 11.4130724,8.55251914 L11.4130724,8.55251914 C8.74853382,4.80322624 5.12307765,1.8646513 0.927717054,0.0544180545 L0.927717054,0.0544180545 C0.841871392,0.0177691607 0.752702671,0 0.66519548,0 L0.66519548,0 C0.407658493,0 0.162859894,0.150482579 0.0543066693,0.403137832" id="path-19"></path>
        <linearGradient x1="0.00088535215%" y1="49.9999983%" x2="100.002975%" y2="49.9999983%" id="linearGradient-21">
            <stop stop-color="#BFEDFF" offset="0%"></stop>
            <stop stop-color="#E8FFF6" offset="100%"></stop>
        </linearGradient>
        <polygon id="path-22" points="0 0 47.0391697 0 47.0391697 79.5742444 0 79.5742444"></polygon>
        <polygon id="path-24" points="0 0 22.9968486 0 22.9968486 6.1311772 0 6.1311772"></polygon>
        <polygon id="path-26" points="-5.02635083e-16 1.60701738e-14 116.902563 1.60701738e-14 116.902563 121.261401 -5.02635083e-16 121.261401"></polygon>
    </defs>
    <g id="20230112-2" stroke="none" stroke-width="1" fill="none" fill-rule="evenodd">
        <g id="切图" transform="translate(-462.000000, -300.000000)">
            <g id="编组-8" transform="translate(462.000000, 300.000000)">
                <g id="编组" transform="translate(1.000000, 0.000000)">
                    <g transform="translate(47.767824, 4.237007)">
                        <mask id="mask-2" fill="white">
                            <use xlink:href="#path-1"></use>
                        </mask>
                        <g id="Clip-2"></g>
                        <path d="M15.0739777,2.03735584 C14.2945072,3.19671641 14.1759912,4.75552528 14.0814064,5.97420984 L14.0814064,5.97420984 C13.9868215,7.19289441 13.0643342,6.76971651 12.6632032,5.97420984 L12.6632032,5.97420984 C12.2615024,5.1775732 11.8125092,4.35777194 11.2455698,3.63119412 L11.2455698,3.63119412 C10.5908829,2.79274818 9.14362054,3.31310446 7.84222395,4.09957127 L7.84222395,4.09957127 C5.90494356,5.27136163 3.49416905,7.94263684 2.26570537,10.2856526 L2.26570537,10.2856526 C1.15119935,12.4105819 -0.57013125,17.3158297 0.18597789,22.0024261 L0.18597789,22.0024261 C0.847502164,22.2837914 1.85602754,23.8064409 2.17055071,24.9081724 L2.17055071,24.9081724 C2.48564367,26.009339 2.64347504,29.2196151 2.64347504,29.2196151 L2.64347504,29.2196151 L3.49416905,30.1563694 C3.49416905,30.1563694 4.53403279,25.2827611 4.81778739,23.0335338 L4.81778739,23.0335338 C7.77897744,22.2600618 10.4894606,19.565057 12.1908486,16.5655223 L12.1908486,16.5655223 C13.5138972,17.9723487 16.1611339,19.2842567 18.618631,20.1277876 L18.618631,20.1277876 C21.0761282,20.9713184 24.6680739,21.8148493 28.1654348,20.4091528 L28.1654348,20.4091528 C30.3397471,21.533484 32.8918292,22.5651567 36.5783598,22.0024261 L36.5783598,22.0024261 C36.9566993,24.157865 37.3350387,25.5641264 37.0512841,28.751238 L37.0512841,28.751238 L38.3743327,31.1880421 L37.6187933,34 L38.6586571,33.9062116 C38.9418419,32.5005151 40.1737243,30.1552395 40.4546299,29.7817807 L40.4546299,29.7817807 C41.0215693,28.1885074 41.9668482,25.470338 42.6289423,22.5651567 L42.6289423,22.5651567 C43.2904666,19.6588454 42.974234,17.0531091 42.4072946,14.7095284 L42.4072946,14.7095284 C41.8397854,12.3665127 41.1611675,10.854033 38.5817356,8.03586028 L38.5817356,8.03586028 C36.2085672,5.44255376 34.5003417,4.2408189 31.5687806,2.78766327 L31.5687806,2.78766327 C28.6383591,1.33450763 24.3843193,0.444647546 21.0761282,0.069493835 L21.0761282,0.069493835 C20.6596129,0.0220346306 20.2641798,0 19.8903986,0 L19.8903986,0 C17.2984314,0 15.7349322,1.05483732 15.0739777,2.03735584" id="Fill-1" fill="url(#linearGradient-3)" mask="url(#mask-2)"></path>
                    </g>
                    <g transform="translate(57.767824, 71.237007)">
                        <mask id="mask-5" fill="white">
                            <use xlink:href="#path-4"></use>
                        </mask>
                        <g id="Clip-4"></g>
                        <path d="M0,4.50336952 C1.85714286,7.48483714 2.72358564,8.72706851 3.83798329,9.84518907 L3.83798329,9.84518907 L2.72358564,14.1924373 L9.50232498,15 L8.66666667,10.0934107 C10.7712047,8.47884687 12.0092999,6.98783227 13,5.7456009 L13,5.7456009 C10.6475071,3.13646574 8.57375355,1.33601647 6.53078447,0 L6.53078447,0 C4.70498579,0.90134781 1.85714286,2.8882441 0,4.50336952" id="Fill-3" fill="url(#linearGradient-6)" mask="url(#mask-5)"></path>
                    </g>
                    <g transform="translate(55.767824, 120.237007)">
                        <mask id="mask-8" fill="white">
                            <use xlink:href="#path-7"></use>
                        </mask>
                        <g id="Clip-6"></g>
                        <path d="M0.822814667,6.81157154 C0.822814667,9.66470781 0.380244443,14.3905269 0,18.8699841 L0,18.8699841 L0.727896505,22 L14.3881066,22 C14.3881066,22 15.2417983,19.0542006 16,15.4641983 L16,15.4641983 C15.8101637,12.7952786 15.7158173,5.89104391 15.2417983,0 L15.2417983,0 C12.7750697,1.47262226 3.19405332,5.89104391 0.822814667,6.81157154" id="Fill-5" fill="url(#linearGradient-9)" mask="url(#mask-8)"></path>
                    </g>
                    <g transform="translate(101.767824, 47.237007)">
                        <mask id="mask-11" fill="white">
                            <use xlink:href="#path-10"></use>
                        </mask>
                        <g id="Clip-8"></g>
                        <path d="M0.0567122369,0.390537924 C-0.0947969575,0.717150107 0.0676995448,1.09694421 0.41987168,1.23715108 L0.41987168,1.23715108 C1.30868707,1.5922344 2.07779863,2.17025201 2.64162101,2.90620381 L2.64162101,2.90620381 C3.20717823,3.6421556 3.54258026,4.50595888 3.61370863,5.40253081 L3.61370863,5.40253081 C3.64204432,5.75761412 3.97455495,6.0240609 4.35679761,5.99827573 L4.35679761,5.99827573 C4.46320102,5.99075505 4.56208679,5.96174674 4.6488287,5.91608549 L4.6488287,5.91608549 C4.87435765,5.79682907 5.01834921,5.56422533 4.99810943,5.30852237 L4.99810943,5.30852237 C4.90789785,4.17558636 4.48459735,3.08616282 3.77273545,2.15789662 L3.77273545,2.15789662 C3.06087355,1.22963041 2.09052077,0.50173648 0.9686588,0.0531819181 L0.9686588,0.0531819181 C0.879025498,0.0171901149 0.785922519,0 0.694554379,0 L0.694554379,0 C0.426232753,0 0.170054993,0.145578786 0.0567122369,0.390537924" id="Fill-7" fill="url(#linearGradient-12)" mask="url(#mask-11)"></path>
                    </g>
                    <g transform="translate(103.767824, 42.237007)">
                        <mask id="mask-14" fill="white">
                            <use xlink:href="#path-13"></use>
                        </mask>
                        <g id="Clip-10"></g>
                        <path d="M0.0559632189,0.42480509 C-0.0934693294,0.781149855 0.0667587261,1.19425233 0.412783144,1.34755664 L0.412783144,1.34755664 C2.14517797,2.11524848 3.64348075,3.36274773 4.7440543,4.95430399 L4.7440543,4.95430399 C5.84519605,6.54586025 6.50031288,8.4112578 6.63838174,10.3492116 L6.63838174,10.3492116 C6.66622279,10.7359832 6.99292893,11.0262081 7.36849894,10.9981219 L7.36849894,10.9981219 C7.47304491,10.98993 7.57020447,10.9577478 7.65600035,10.9080117 L7.65600035,10.9080117 C7.87645597,10.7781126 8.01850212,10.5247509 7.99804747,10.2456434 L7.99804747,10.2456434 C7.84122853,8.05198738 7.10031582,5.94024968 5.85542337,4.13921653 L5.85542337,4.13921653 C4.60882637,2.33876852 2.91393173,0.927432599 0.951422139,0.0573428358 L0.951422139,0.0573428358 C0.863353527,0.0181390603 0.772443992,0 0.682670826,0 L0.682670826,0 C0.41846499,0 0.167327399,0.159155626 0.0559632189,0.42480509" id="Fill-9" fill="url(#linearGradient-15)" mask="url(#mask-14)"></path>
                    </g>
                    <g transform="translate(105.767824, 37.237007)">
                        <mask id="mask-17" fill="white">
                            <use xlink:href="#path-16"></use>
                        </mask>
                        <g id="Clip-12"></g>
                        <path d="M0.0568603724,0.412907485 C-0.0948209808,0.759272029 0.0672812287,1.16080465 0.420432471,1.3092466 L0.420432471,1.3092466 C3.25722114,2.50872578 5.70901706,4.45667087 7.5118252,6.94207819 L7.5118252,6.94207819 C9.31347547,9.4274855 10.3856658,12.3405876 10.6131878,15.3674384 L10.6131878,15.3674384 C10.6409768,15.7433775 10.9744442,16.0254741 11.3565422,15.9981745 L11.3565422,15.9981745 C11.4630666,15.9902121 11.5626436,15.9589312 11.6494841,15.910588 L11.6494841,15.910588 C11.8746904,15.7843271 12.0188456,15.5380613 11.9980038,15.2673396 L11.9980038,15.2673396 C11.7531137,11.9913794 10.5929251,8.8388364 8.64422492,6.14981906 L8.64422492,6.14981906 C6.69320904,3.46080172 4.03994323,1.35360856 0.969843174,0.05516808 L0.969843174,0.05516808 C0.880108022,0.0176310359 0.787478188,1.61646509e-14 0.696006227,1.61646509e-14 L0.696006227,1.61646509e-14 C0.426221835,1.61646509e-14 0.170331919,0.154129378 0.0568603724,0.412907485" id="Fill-11" fill="url(#linearGradient-18)" mask="url(#mask-17)"></path>
                    </g>
                    <g transform="translate(109.767824, 30.237007)">
                        <mask id="mask-20" fill="white">
                            <use xlink:href="#path-19"></use>
                        </mask>
                        <g id="Clip-14"></g>
                        <path d="M0.0543066693,0.403137832 C-0.0908001923,0.741307171 0.064829686,1.13278399 0.402673906,1.27826899 L0.402673906,1.27826899 C4.37428194,2.99188242 7.80700075,5.77497721 10.3297555,9.32603291 L10.3297555,9.32603291 C12.8563872,12.8815309 14.3578556,17.0506202 14.6729922,21.3818531 L14.6729922,21.3818531 C14.6995767,21.7488974 15.0180364,22.0248746 15.3835728,21.9982209 L15.3835728,21.9982209 C15.4860337,21.9910022 15.5818485,21.9604614 15.6643712,21.9127068 L15.6643712,21.9127068 C15.8609854,21.800539 15.9933539,21.5911961 16,21.3546441 L16,21.3546441 L16,21.3146635 C16,21.3046683 15.9994462,21.2952285 15.9988923,21.2852333 L15.9988923,21.2852333 C15.6665865,16.7096744 14.0809341,12.3073649 11.4130724,8.55251914 L11.4130724,8.55251914 C8.74853382,4.80322624 5.12307765,1.8646513 0.927717054,0.0544180545 L0.927717054,0.0544180545 C0.841871392,0.0177691607 0.752702671,0 0.66519548,0 L0.66519548,0 C0.407658493,0 0.162859894,0.150482579 0.0543066693,0.403137832" id="Fill-13" fill="url(#linearGradient-21)" mask="url(#mask-20)"></path>
                    </g>
                    <g transform="translate(-0.232176, 0.237007)">
                        <g transform="translate(0.000000, 62.958154)">
                            <mask id="mask-23" fill="white">
                                <use xlink:href="#path-22"></use>
                            </mask>
                            <g id="Clip-16"></g>
                            <path d="M28.4053445,79.5742444 C21.4683365,79.5742444 10.7991072,76.8070839 7.63167091,75.753143 C3.35333996,74.3282871 2.12530052,70.2137333 1.04156986,66.5843089 C0.818032724,65.832867 0.606379844,65.1238316 0.372656208,64.4498522 C-0.765402463,61.1687259 0.738804373,50.8187316 4.39689052,36.7635467 C5.46703918,32.6512545 7.41718845,24.1383064 10.6282003,6.93995739 L10.7521361,6.27785177 C11.3655899,3.00859925 12.6875715,0.620269498 14.201399,0.0441075622 C14.5528333,-0.0882004781 14.9444477,0.0870794043 15.0774382,0.43707375 C15.2115604,0.787633515 15.0349944,1.17946886 14.6846919,1.31234232 C13.8182733,1.64198159 12.6473914,3.53896225 12.0871338,6.52776695 L11.963198,7.18874174 C8.74539516,24.4261046 6.78732306,32.9712816 5.71094932,37.1050597 C2.22546779,50.4992698 0.634109767,61.0584692 1.65558958,64.0059983 C1.89949972,64.7076833 2.11511401,65.4308541 2.3437444,66.1964314 C3.38050396,69.670931 4.45291629,73.2641686 8.06176767,74.465684 C12.8850765,76.0726047 27.6362636,79.5024362 32.2688585,77.7094926 C37.0785853,75.8492642 42.1769297,73.317318 44.1078378,72.1910034 C45.4694336,71.3971552 45.541871,70.8068578 45.6329836,70.0593739 C45.6499611,69.9208462 45.6669386,69.782884 45.6901412,69.6443563 C45.7512602,69.2751378 46.1043923,69.0286151 46.4716722,69.0868532 C46.8417818,69.1490493 47.0919171,69.4984783 47.0296662,69.8676968 C47.0098591,69.9864348 46.9962771,70.1046074 46.9809974,70.2233454 C46.8723413,71.1172728 46.7365213,72.2300173 44.7920312,73.3631169 C42.8237726,74.5109175 37.6377111,77.0886626 32.7595084,78.9749003 C31.6655912,79.3978337 30.1534615,79.5742444 28.4053445,79.5742444" id="Fill-15" fill="#2565C1" mask="url(#mask-23)"></path>
                        </g>
                        <path d="M28.4285471,91.6800294 C28.0889971,91.6800294 27.7958522,91.4261563 27.7556721,91.0806853 C27.5406237,89.2566437 26.5700764,84.7502544 25.1937667,79.9922538 C23.4116948,73.8291869 21.7784589,69.7304648 19.3687852,65.374477 C19.1871259,65.046534 19.3065344,64.6337781 19.6347661,64.4522786 C19.9629978,64.27191 20.3761171,64.3900826 20.5572105,64.7174601 C23.3975468,69.8525953 24.9866412,74.38669 26.4993368,79.6156847 C27.9096014,84.4952505 28.8773192,88.9971164 29.1036859,90.9218026 C29.1478274,91.2938482 28.8818465,91.6314034 28.5094732,91.6749406 C28.4823092,91.6783331 28.4551452,91.6800294 28.4285471,91.6800294" id="Fill-17" fill="#2565C1"></path>
                        <path d="M26.4721728,114.50164 C26.2984363,114.50164 26.1246999,114.435486 25.9917094,114.302612 C25.7268604,114.037996 25.7268604,113.608278 25.9917094,113.343096 C26.4812275,112.854574 26.6985395,112.292548 26.1722369,111.135135 C25.606886,109.891779 25.8524939,109.208187 26.4467065,107.557164 C26.5474397,107.277281 26.6606231,106.962343 26.7856907,106.603302 C27.6526752,104.113762 28.1699232,101.737306 28.0686241,97.5905236 C28.0595694,97.2162162 28.3561098,96.9046704 28.7307467,96.8956237 C28.7364059,96.8950582 28.742065,96.8950582 28.7477242,96.8950582 C29.1150042,96.8950582 29.4172038,97.1885107 29.4262584,97.5571639 C29.5320849,101.895058 28.959943,104.4892 28.0686241,107.049418 C27.9418587,107.413547 27.8275435,107.732444 27.7251126,108.016284 C27.1359932,109.652607 27.0822311,109.855592 27.4087651,110.57424 C28.0974858,112.087866 27.9480838,113.30804 26.9526361,114.302612 C26.8196457,114.435486 26.6459092,114.50164 26.4721728,114.50164" id="Fill-19" fill="#2565C1"></path>
                        <path d="M100.78797,76.6273889 C100.705912,76.6273889 100.622722,76.612688 100.541796,76.5810245 C100.19206,76.445324 100.019455,76.0517924 100.155275,75.7029289 C100.729115,74.2277508 102.119006,71.3277168 104.975754,68.4729164 C105.241169,68.2077349 105.671266,68.2077349 105.936681,68.4729164 C106.20153,68.7375325 106.20153,69.1672509 105.936681,69.4324324 C103.1552,72.2114667 101.851893,75.0871876 101.420665,76.194278 C101.316536,76.4634174 101.05961,76.6273889 100.78797,76.6273889" id="Fill-21" fill="#2565C1"></path>
                        <path d="M97.2001706,92.3641864 C97.1718748,92.3641864 97.143013,92.3624901 97.1152831,92.3585322 C96.7423439,92.3121678 96.4791926,91.9734819 96.5255978,91.6014362 C96.5827554,91.142316 96.6370834,90.674149 96.6931092,90.1958046 C97.000402,87.5496438 97.3501386,84.5506615 98.4282101,81.1021712 C98.5396957,80.7453918 98.9199917,80.5446681 99.2793489,80.6571865 C99.6370083,80.7691394 99.836211,81.1496664 99.7247254,81.5075766 C98.6840044,84.8339364 98.3433225,87.7656338 98.0416889,90.3524256 C97.9856631,90.834728 97.9307692,91.3068529 97.8724798,91.7693656 C97.830036,92.1131403 97.537457,92.3641864 97.2001706,92.3641864" id="Fill-23" fill="#2565C1"></path>
                        <path d="M80.8808281,118.303856 C80.5231686,118.199819 80.1434385,118.406197 80.0398757,118.766369 C77.0671148,129.01798 74.501248,137.113649 72.6190088,142.177542 C72.4888479,142.528667 72.6676776,142.919371 73.019112,143.049983 C73.0972085,143.078254 73.1775687,143.092389 73.2556652,143.092389 C73.5318326,143.092389 73.7910225,142.923329 73.8923216,142.650232 C76.2844519,136.213502 79.2651356,126.314712 81.343748,119.144069 C81.4484426,118.784462 81.2413171,118.408459 80.8808281,118.303856" id="Fill-25" fill="#2565C1"></path>
                        <path d="M49.5122866,130.736458 C49.4064601,130.376286 49.0289936,130.170474 48.6702024,130.275076 C48.3097134,130.379679 48.1031538,130.756813 48.2078484,131.11642 C49.7363896,136.349938 51.1166607,140.288646 52.3101792,142.821723 C52.4261922,143.067681 52.6706682,143.211297 52.9253308,143.211297 C53.0221025,143.211297 53.1205721,143.190377 53.2139483,143.146839 C53.5534984,142.987391 53.698939,142.583117 53.5393505,142.244431 C52.3758256,139.77355 51.0204548,135.902691 49.5122866,130.736458" id="Fill-27" fill="#2565C1"></path>
                        <path d="M20.2592553,144.734988 C19.9010299,144.734988 19.60166,144.455106 19.5818529,144.093238 L19.4222643,141.178503 C19.4018913,140.804195 19.6888111,140.484168 20.0634481,140.463813 C20.4561943,140.447981 20.7583939,140.730691 20.7787669,141.104433 L20.9377895,144.019168 C20.9581625,144.393475 20.6718086,144.713502 20.2966058,144.733857 C20.2841556,144.734423 20.2711395,144.734988 20.2592553,144.734988" id="Fill-29" fill="#2565C1"></path>
                        <g transform="translate(60.570330, 0.000000)">
                            <mask id="mask-25" fill="white">
                                <use xlink:href="#path-24"></use>
                            </mask>
                            <g id="Clip-32"></g>
                            <path d="M22.3177485,6.1311772 C22.1434461,6.1311772 21.9702756,6.06502318 21.8372851,5.93214972 C18.8690516,2.96596178 12.7707322,1.99683365 9.49407397,1.47608278 C5.47549882,0.839421011 1.63122605,2.78163519 1.34713582,4.34106073 C1.28035763,4.7097139 0.927791472,4.95454031 0.55768189,4.88725546 C0.188138224,4.82053602 -0.0557719139,4.46714916 0.0110062677,4.09849599 C0.493167375,1.44950809 5.38438622,-0.550378831 9.7074246,0.136039805 C14.8029394,0.945719778 19.9154317,2.09238946 22.7982119,4.97263372 C23.0630609,5.23781522 23.0630609,5.66753364 22.7982119,5.93214972 C22.6652214,6.06502318 22.491485,6.1311772 22.3177485,6.1311772" id="Fill-31" fill="#2565C1" mask="url(#mask-25)"></path>
                        </g>
                        <path d="M83.8380828,16.1822345 C83.6298255,16.1822345 83.4243977,16.0866787 83.2908413,15.9063101 C80.7385566,12.4465114 71.1507943,9.07322176 68.309326,10.0745788 C67.9567599,10.1995364 67.5674091,10.0140789 67.4423415,9.66069207 C67.3178398,9.30730521 67.5034605,8.91999321 67.8571585,8.79560104 C71.4671418,7.52171209 81.6626987,11.4112292 84.3841926,15.1011535 C84.6065979,15.4030872 84.5420833,15.8277168 84.2404497,16.0499265 C84.1193435,16.1392627 83.9778643,16.1822345 83.8380828,16.1822345" id="Fill-33" fill="#2565C1"></path>
                        <path d="M75.4847548,17.889291 C75.3551599,17.889291 75.2244331,17.8525387 75.1084202,17.7750763 C72.4497431,16.0030533 66.4068836,14.8914396 64.1505733,15.7576614 C63.8019686,15.8916657 63.4075246,15.7186475 63.2728364,15.3680878 C63.1381482,15.0186588 63.3124505,14.6262581 63.662753,14.4911229 C66.3186005,13.4705417 72.8181549,14.6183422 75.8622213,16.6459346 C76.1740415,16.8540088 76.2583631,17.275246 76.0501057,17.5873572 C75.9199449,17.7835576 75.7043306,17.889291 75.4847548,17.889291" id="Fill-35" fill="#2565C1"></path>
                        <path d="M51.9488979,20.5441027 C51.873631,20.5441027 51.7972322,20.5316635 51.7230971,20.5056542 C51.3693991,20.3806966 51.1832125,19.9928192 51.3082801,19.6394323 C52.2810911,16.8858419 54.7043468,12.3048174 57.5146896,12.5519055 C57.8881947,12.5858306 58.1632302,12.9160353 58.1298411,13.2892118 C58.0953202,13.6623883 57.7755772,13.9354857 57.3918856,13.9038222 C55.9753959,13.7698179 53.83906,16.5522447 52.5895157,20.0912021 C52.4910462,20.3699536 52.2284608,20.5441027 51.9488979,20.5441027" id="Fill-37" fill="#2565C1"></path>
                        <g transform="translate(4.097437, 23.738599)">
                            <mask id="mask-27" fill="white">
                                <use xlink:href="#path-26"></use>
                            </mask>
                            <g id="Clip-40"></g>
                            <path d="M91.9631469,74.2328475 C91.8958028,74.6642622 91.8318542,75.0713638 91.7962015,75.5321803 C91.7911082,75.5949418 91.8069539,75.65318 91.8188381,75.712549 C90.8777185,75.5451849 89.8285088,75.4032648 88.9400194,75.5508391 C88.2230028,75.6701425 87.6474655,75.6588341 87.0408027,75.6480912 C86.4952589,75.6373482 85.9321717,75.6277361 85.236094,75.7051985 C84.5405823,75.7820955 84.0306912,76.1988093 83.8394114,76.8473448 C83.5264594,77.9029821 84.1370836,79.3170949 84.8812642,79.9254857 C85.0363254,80.0521396 85.2213802,80.1878401 85.426242,80.3229753 C84.6933798,80.7843572 83.3883757,81.3152856 82.4846066,81.2666595 C82.046587,81.2423465 81.6776092,81.0348378 81.4455833,80.6820163 C81.1711137,80.2647371 81.1298018,79.7094957 81.3335318,79.1582122 C81.60404,78.4237329 81.9435901,77.6660715 82.2718218,76.9332885 C82.6085423,76.1807159 82.9571471,75.4026994 83.243501,74.6263791 C83.5587166,73.7703348 84.1235016,73.4367376 84.8382545,73.014935 C85.1534702,72.8283468 85.4794382,72.6355389 85.8048404,72.3850583 C86.7623716,71.6500136 89.5325343,70.415704 90.7662329,70.0306537 C90.8386703,70.0080369 91.0593778,69.9384904 91.3723298,70.1816205 C91.8805231,70.5751521 92.2336552,71.4470282 92.1929091,72.209213 C92.1487676,73.0505564 92.0542595,73.6515968 91.9631469,74.2328475 M80.0590872,78.6889144 C79.9272286,79.0462592 79.8576208,79.4086928 79.8485661,79.7637759 C78.9295173,80.1392141 76.8984419,79.777346 76.1169108,78.8766335 C76.0048593,78.7471526 75.9675088,78.6318071 75.9895795,78.479144 C76.067676,77.9352109 76.8543004,77.0983909 77.9459539,76.3972713 C77.9567063,76.3904863 77.9617995,76.3797433 77.9714201,76.3723929 C78.3777484,76.2185989 78.7495557,75.9873426 79.0591122,75.6333903 C79.2220962,75.446802 79.2537876,75.1997139 79.183048,74.9803314 C79.2843471,75.035177 79.3924372,75.070233 79.5022251,75.070233 C79.7093506,75.070233 79.9130807,74.9763734 80.0460711,74.7988319 C80.7387533,73.8755027 82.1207221,72.5733428 83.0352436,71.7122097 C83.3266907,71.4374161 83.5683372,71.2089868 83.7228325,71.0551928 C84.2491351,70.5287878 85.4584993,69.8723364 86.2581397,69.4380946 L86.4324421,69.3431042 C86.7431304,69.1734785 87.2745263,69.4867206 87.7006616,69.8044861 C86.6220242,70.3020548 85.5564029,70.8640812 84.9769041,71.3096314 C84.7165824,71.5097897 84.4398491,71.6731958 84.1467042,71.846214 C83.352157,72.3155117 82.4517834,72.847571 81.9690564,74.1570813 C81.6985481,74.8904298 81.359564,75.6475258 81.0318982,76.3791779 C80.6946117,77.1328814 80.346007,77.9114633 80.0590872,78.6889144 M75.360846,74.937925 C75.0846786,74.5053794 75.0450644,73.8755027 75.2640742,73.4067704 C75.544203,72.8062954 75.8650778,72.0655966 76.1853867,71.3248977 C76.5017342,70.5943764 76.8175158,69.8644205 77.094815,69.2729922 C77.5979151,68.1936074 78.3222885,67.5659924 79.4026237,66.8467794 C80.2905472,66.2547857 81.6617635,65.583068 82.9882725,64.9345324 C83.3878098,64.7383321 83.7896107,64.5415663 84.1834888,64.3453659 C84.7975085,64.0372125 85.3549365,64.2017494 85.7148596,64.3922956 C86.3628343,64.7349395 86.8093427,65.3851714 86.8665003,65.8148898 C86.9819473,66.6782846 87.0215615,67.1911196 87.0345776,67.9781828 C86.6259856,67.8956316 86.1998503,67.9233371 85.7822037,68.151201 L85.6090332,68.245626 C84.6888525,68.7460218 83.4279899,69.4307441 82.7624717,70.0956768 C82.6142015,70.2432512 82.3827415,70.4615029 82.1031786,70.7249882 C81.1547021,71.6183501 79.7223667,72.9685707 78.9595109,73.985194 C78.8202953,74.1706514 78.8027519,74.4002115 78.8717938,74.6048932 C78.59789,74.4533609 78.250983,74.4946365 78.0370665,74.7394629 C77.6861981,75.1397795 77.0733102,75.3031856 75.9216695,75.3031856 C75.6505954,75.3031856 75.4672383,75.1047236 75.360846,74.937925 M74.7372057,77.9182484 C74.4514177,77.1996009 73.9771794,76.8077655 73.4848318,76.6539715 C73.6913914,76.3305519 73.8549414,76.0116556 73.9477517,75.6961518 C73.9845363,75.5706288 74.0105685,75.4473675 74.0315074,75.3258024 C74.0852695,75.4434095 74.1458226,75.5581896 74.2154304,75.6673154 C74.5436621,76.1812813 75.0190322,76.5131822 75.5521258,76.619481 C75.1961642,77.0084892 74.8917009,77.449516 74.7372057,77.9182484 M72.2607538,72.1990354 C72.2879178,72.202428 72.3150818,72.2080821 72.3416799,72.2080821 C72.6529341,72.2080821 72.9336288,71.9926575 73.0043684,71.6765883 C73.0371916,71.5301448 73.8074044,68.0612994 74.0467872,66.5471074 C74.2442921,65.2952697 74.0586714,64.2492446 73.5102981,63.5204196 C73.04851,62.9075054 72.3626188,62.5399831 71.470168,62.429161 C70.5816787,62.3183388 67.5613807,62.0350639 64.3469733,61.7416115 C64.2762337,61.2417811 64.2060601,60.7091564 64.1364523,60.1691813 C64.0079892,59.1672589 63.8846193,58.21057 63.7544585,57.4890954 C64.8025364,56.6918546 66.4476565,55.1324291 67.722667,53.7239704 C68.7526356,54.8039207 69.6598002,55.8154552 70.2794791,56.5646353 C70.4068104,56.7189947 70.5969584,56.8094618 70.7978589,56.811158 L70.8023862,56.811158 C71.0015889,56.811158 71.191171,56.7235181 71.3196341,56.5719858 C73.1939506,54.3696789 75.3274569,50.8708663 76.3913804,48.2518456 C76.5328596,47.9052437 76.3653483,47.508885 76.0184413,47.3680957 C75.6698365,47.226741 75.2742607,47.394105 75.1339133,47.7412722 C74.2267487,49.9701538 72.4316606,52.9844024 70.7916338,55.0724947 C68.8165842,52.8062954 64.6225748,48.4633123 61.9310746,46.7144714 C67.097329,42.5665578 72.612754,36.4317619 73.6896937,32.1277926 C73.7808063,31.7642282 73.5589669,31.3961405 73.1956483,31.305108 C73.1266065,31.2881455 73.0581305,31.291538 72.9902205,31.2960613 C74.4734884,29.7858272 75.6636115,28.2755932 76.3387502,27.0034005 L79.7319873,30.9234502 C79.8163089,31.0212677 79.9272286,31.0930759 80.0517303,31.1298282 C80.3312932,31.2129447 80.6357564,31.3068043 80.951538,31.4057526 C80.8649527,31.4249769 80.7800652,31.4605983 80.7025346,31.5148785 C80.3963736,31.7314339 80.3233703,32.1549328 80.5389846,32.4608244 C81.7449533,34.1666935 85.8953871,40.6633575 87.5071181,43.4282563 L80.6663159,44.5443933 C80.3652482,44.5935848 80.1337882,44.8378458 80.1003991,45.1409104 C80.0675759,45.4445404 80.2418783,45.7323386 80.5259685,45.844857 L87.6836841,48.6759098 C87.4046872,50.8776513 86.3877347,55.6096427 84.7844924,62.1526711 C84.7222416,62.407675 84.8195792,62.6598519 85.0057659,62.8209963 C84.5179456,62.8012066 84.0329549,62.9029821 83.5756941,63.1314113 C83.1852115,63.3264809 82.7868061,63.5215504 82.3900985,63.7154891 C80.9617245,64.4154778 79.6125788,65.0758872 78.6488225,65.7176377 C77.400976,66.5488036 76.4994706,67.3381285 75.863946,68.6985266 C75.5826854,69.3006978 75.2601128,70.0436583 74.939238,70.7860534 C74.8781189,70.9279736 74.8169999,71.0687629 74.7558809,71.2095522 C75.2397398,67.9086363 75.7054893,64.7711264 76.1197404,61.9813491 C76.6675478,58.2965137 77.1248086,55.2149803 77.4168217,53.1534627 C78.7008869,44.0790535 77.5271755,35.0080369 75.7937723,30.0436583 C75.6704025,29.6902714 75.2838813,29.5031178 74.9284855,29.6269445 C74.5742216,29.7502059 74.3874691,30.1369524 74.5114049,30.4909047 C76.136152,35.1448683 77.3177862,44.1621701 76.0716375,52.9634819 C75.7801903,55.0227378 75.3234955,58.1014441 74.7762539,61.7817562 C74.3325752,64.7722572 73.8289092,68.1596823 73.3076998,71.7212564 C73.2533718,72.0921713 73.510864,72.4365114 73.8815395,72.4907916 C73.9143626,72.4958804 73.9477517,72.4981421 73.9811408,72.4981421 C74.0592373,72.4981421 74.1339384,72.4823103 74.2052439,72.4568665 C74.1469544,72.585782 74.088665,72.7141321 74.0326393,72.8328701 C73.9143626,73.0867432 73.8402275,73.3587098 73.7994815,73.6363305 C73.4752112,72.9646127 72.8991079,72.4557357 72.2607538,72.1990354 M59.0001915,61.2587437 C58.5712266,61.2202952 58.1615028,61.1829775 57.7778112,61.148487 C58.0420944,59.8525467 58.3946605,58.1630748 58.6696961,57.2239139 C58.7426993,56.9751295 58.6668665,56.7059901 58.4750207,56.5312756 C57.3103639,55.4733767 55.1434685,52.6722911 54.7145036,51.5414532 C56.6963442,49.9034344 58.9690661,48.2688081 60.6922827,47.5462027 C62.1885667,48.3496631 64.6276681,50.572325 66.7736246,52.7469264 C65.2892248,54.3990807 63.4403746,56.0862909 62.6277181,56.6279623 C62.3956922,56.7828871 62.281943,57.0644657 62.3407983,57.3369977 C62.4907663,58.0228509 62.642432,59.2023149 62.7895703,60.3427649 C62.8455961,60.7758759 62.9016219,61.2016364 62.9582135,61.6155231 C61.5728492,61.49 60.2027647,61.3667387 59.0001915,61.2587437 M31.5843524,112.524151 C26.3965932,109.606589 24.4362574,107.789898 23.2563209,104.841238 C22.0531818,101.836036 22.3214264,98.1393272 23.9467394,95.1211207 C25.0185858,94.8864718 28.7010064,94.0835769 30.526088,93.7448909 C28.6681832,95.0781489 26.6965291,96.8241627 26.466201,100.022172 C26.2579436,102.921641 27.5601181,106.408014 29.4961195,108.131411 C31.0574839,109.521777 33.5701545,110.082672 35.7478023,110.082672 C36.769848,110.082672 37.7053085,109.953191 38.4466595,109.733809 C35.742709,111.060847 33.5197879,111.966083 31.5843524,112.524151 M48.0644154,82.3364322 C47.7956049,82.3562219 47.5664086,82.3556565 47.4130451,82.3313435 C47.5494311,81.9530782 47.7503316,81.4809533 47.9619844,80.9845155 C48.0627176,80.7481703 48.1640167,80.5106944 48.2613544,80.2749147 C48.1713736,81.2185989 48.1023318,81.9412044 48.0644154,82.3364322 M81.1671523,15.3523771 L81.141686,15.3625546 C81.1796024,15.2590829 81.2175189,15.1556113 81.2543035,15.0521396 C81.2243099,15.1527842 81.1954481,15.2528633 81.1671523,15.3523771 M114.392693,81.3339444 C114.116526,79.9950323 113.843754,78.6685594 113.588525,77.3680957 C112.536486,72.0090547 111.460678,62.6400622 110.675186,55.7984926 C110.086632,50.6701425 109.770851,47.9634819 109.576175,47.3155117 C109.293783,46.3746546 108.26721,43.234883 106.914669,42.334736 C106.602848,42.1266618 106.18124,42.2114747 105.972983,42.5230205 C105.765292,42.8351318 105.849613,43.2558035 106.161999,43.4638777 C106.769794,43.8687177 107.658849,45.6526145 108.275133,47.7050854 C108.444342,48.2682427 108.852934,51.8298168 109.326606,55.9534174 C110.113796,62.8176038 111.192434,72.2176943 112.255225,77.6298847 C112.512152,78.9337409 112.785489,80.2647371 113.062223,81.6076072 C114.633208,89.2356746 116.257389,97.1244001 115.216102,102.845309 C114.165195,108.619933 112.843213,111.819074 108.172136,114.378726 C105.09751,116.061978 98.0184566,114.697622 88.2348871,110.533877 C85.0963126,109.198922 83.753392,106.514313 83.1795524,104.496898 C82.7902016,103.127453 82.9939317,101.432327 83.4296876,100.889525 C83.53608,100.756086 83.5773919,100.594376 83.570035,100.436059 C84.0171092,101.539757 84.7228075,102.701127 86.1975866,103.629545 C86.7148346,104.860463 87.9502309,106.908976 90.8205609,108.862498 C89.0503732,109.137857 87.3531887,108.616541 86.7946289,107.965178 C86.5507187,107.681338 86.1228856,107.647413 85.8370976,107.891674 C85.5524415,108.135935 85.5190524,108.563957 85.7635285,108.848928 C86.5037476,109.711192 88.0803918,110.30262 89.8285088,110.30262 C90.7849082,110.30262 91.792806,110.125079 92.7429803,109.718542 C96.3869185,108.157986 100.9035,104.920397 101.72408,98.360406 C102.133804,95.0854993 101.271912,92.3692265 99.4830493,90.9234502 C103.29846,91.8349056 109.558066,94.6976219 111.290903,97.6790761 C111.857386,98.6538585 112.444242,99.1288104 113.083162,99.1288104 C113.102403,99.1288104 113.121078,99.128245 113.139753,99.1276796 C113.435162,99.1146749 113.986931,98.9761473 114.355343,98.1913457 C114.933144,96.9615595 114.802417,94.5737951 113.692088,93.1121871 C112.567046,91.6307894 110.546723,90.8793475 109.339622,90.4309703 C109.154001,90.3619892 108.985358,90.2997931 108.841049,90.2421204 C108.493576,90.1035927 108.098001,90.2720876 107.958785,90.6203857 C107.81957,90.9686837 107.988779,91.3633462 108.337383,91.5024393 C108.490181,91.5635045 108.669011,91.6302239 108.866516,91.703163 C110.004008,92.1260964 111.72383,92.7644544 112.610055,93.93261 C113.264255,94.7920469 113.423844,96.1213469 113.295946,96.9926575 C113.233696,97.418418 113.119946,97.6468473 113.053734,97.7418377 C112.959226,97.6779453 112.75493,97.4958804 112.465746,96.9977463 C110.393359,93.4322142 103.547464,90.4445404 99.5724641,89.5472204 C99.2068819,89.4663655 98.8424315,89.6942294 98.7603735,90.05949 C98.7286822,90.1997139 98.7541484,90.3342837 98.804515,90.457545 C98.5045791,90.2884847 98.1870998,90.14713 97.8481157,90.041962 C97.4893244,89.9294437 97.1090283,90.1301674 96.9975427,90.4869468 C96.8854912,90.844857 97.0852598,91.225384 97.4429192,91.3373369 C99.6596153,92.0294097 100.811256,94.7202386 100.376632,98.1924766 C99.6584835,103.931479 95.777992,106.862046 92.5188772,108.331004 C90.3361361,107.037326 89.0305661,105.6741 88.2569578,104.554571 C89.1182832,104.816925 90.0345025,104.967327 90.9292169,104.967327 C92.4419125,104.967327 93.8850004,104.549482 94.8634705,103.572438 C96.7106229,101.726345 98.6494538,98.1217992 98.5628686,95.516914 C98.477981,92.9713978 96.4814266,90.4518908 95.1447311,89.8350187 C94.5380683,89.5551363 94.0128975,89.1423805 93.7305051,88.8992503 C93.8459521,87.6790761 94.3196245,86.1411365 94.7406665,84.7711264 C94.9098757,84.2221045 95.0700301,83.7013537 95.1973614,83.2360138 C95.6766929,81.4803879 95.9268281,80.3190173 96.0903781,79.0926236 C96.1888476,78.3553172 95.9783266,77.6225342 95.4967314,77.0288443 C95.0207954,76.4425048 94.3445248,76.0749825 93.6393925,76.0207023 C93.4775403,76.0082631 93.2721125,75.977165 93.0457457,75.9375857 C93.1006397,75.8476841 93.1419516,75.7481703 93.1504404,75.635652 C93.1815658,75.2291157 93.241553,74.8468925 93.3049356,74.4426179 C93.3971801,73.8562785 93.5013088,73.1919112 93.5494117,72.2810212 C93.6127944,71.0766788 93.0598937,69.7728226 92.2053593,69.1090207 C91.6422721,68.6730827 90.9880723,68.5396438 90.3604706,68.7352788 C90.0226182,68.8410121 89.5862964,69.0015911 89.1041353,69.1960953 C89.1007398,69.1932682 89.099608,69.1887448 89.0962125,69.1859177 C88.9128554,69.0292967 88.6734726,68.8257458 88.3973052,68.6284146 C88.3950415,67.3760116 88.3656139,66.7806254 88.2128163,65.6362174 C88.0894465,64.7128882 87.324327,63.7081387 86.3509501,63.1936074 C86.1387313,63.081089 85.9225511,62.9962762 85.7046731,62.9346455 C85.895953,62.8537906 86.0510142,62.6920808 86.1042104,62.4749599 C87.3447,57.4127638 88.8692798,50.8437262 89.0916851,48.294252 C89.1177173,47.9951454 88.9439808,47.7146975 88.6649839,47.6044408 L83.3131087,45.4875122 L88.6836591,44.6111128 C88.8992734,44.5760568 89.0848941,44.4397908 89.1822318,44.2441559 C89.2795695,44.0490863 89.2767399,43.8189608 89.1748749,43.6255875 C88.0747326,41.5363644 82.8784846,33.4180787 81.6487475,31.6782846 C81.6266767,31.6466211 81.5949854,31.6285277 81.5683873,31.6025184 C88.1516973,33.7217087 100.718446,38.5243775 101.459797,38.8947269 C102.33244,39.330665 103.153586,40.265868 103.153586,40.6729696 C103.153586,41.0478424 103.458049,41.3514724 103.833252,41.3514724 C104.208454,41.3514724 104.512352,41.0478424 104.512352,40.6729696 C104.512352,39.4652347 103.053418,38.1738178 102.067591,37.6807724 C101.034227,37.1645449 86.6429632,31.6975088 80.6295313,29.8859064 L77.3636255,26.113431 C77.2430852,25.9737725 77.0784034,25.8968755 76.9086284,25.8821746 C77.5017092,24.6778322 78.2538126,23.0612994 78.8695301,21.6002567 C79.020064,21.6336165 79.1722956,21.654537 79.3262249,21.654537 C79.5310868,21.654537 79.7382124,21.6245698 79.944772,21.5635045 C81.5236798,21.0981647 82.8920666,18.8783298 84.1353858,16.5488036 C85.8614321,13.3146071 86.2988857,10.9398474 85.4720813,9.28882397 C85.3045699,8.95353052 84.8976758,8.81782996 84.5609553,8.98519398 C84.284222,9.12372163 84.154627,9.42395911 84.2083891,9.71401904 C84.1795274,9.69309854 84.1580225,9.66539301 84.1246334,9.64899586 C83.7884788,9.48106642 83.3810188,9.61676698 83.2135074,9.95206043 C82.8388705,10.7012406 82.4472561,11.6200464 82.0828056,12.5891745 C82.3148315,11.8575224 82.4642336,11.3520378 82.4795133,11.3005847 C82.5281822,11.1360478 82.5123365,10.9590716 82.4353718,10.8058431 L81.3952167,8.72792835 C81.7109983,6.52109809 80.9521039,1.58385959 80.3477047,0.374993822 C80.1801934,0.0402657888 79.7704696,-0.0960001843 79.4365787,0.0719292515 C79.1009901,0.239293268 78.9646041,0.64696035 79.1326814,0.982253802 C79.6504953,2.01753595 80.3697755,6.96890991 80.0228685,8.70022282 C79.9934408,8.84836259 80.0143798,9.00159113 80.0817239,9.13672627 L81.1003741,11.1716692 C80.8575958,11.9728678 80.073801,14.4985944 79.3030223,16.3480799 C79.19663,16.6025184 79.2549194,16.8954054 79.4507266,17.0899096 C79.5803216,17.2188251 79.7534921,17.2878062 79.9294922,17.2878062 C80.0189071,17.2878062 80.1083219,17.2702782 80.1932095,17.2340914 L81.9967863,16.4758646 C82.189198,16.3950097 82.3329409,16.2299073 82.3884007,16.0286182 C82.9656358,13.9128204 83.8286589,11.7568778 84.4285307,10.5593204 C84.4409809,10.534442 84.440415,10.5078673 84.4494697,10.4824234 C84.70583,11.7189947 84.2038618,13.5362513 82.93734,15.9104456 C82.3555775,16.9994425 80.8106247,19.8932569 79.5599486,20.26191 C79.5039228,20.2783072 79.4495948,20.2890501 79.3963986,20.2941389 C79.5695692,19.8412383 79.7167075,19.4262208 79.8208362,19.0796189 C79.9283604,18.7205779 79.7246304,18.3423126 79.3652732,18.234883 C79.0030864,18.1263226 78.6278836,18.3315696 78.5197935,18.6900453 C77.9906613,20.4530216 76.142943,24.4641039 75.1531545,26.3441219 C74.2510831,28.056776 72.2041621,30.3772555 69.8103341,32.4003246 C67.4323517,34.4109545 64.1941758,36.6290931 60.2367197,35.9251465 C55.5441376,35.0911535 51.7677749,29.790916 50.7219606,28.186257 C48.8238757,25.2743492 48.1510006,22.7350526 48.1510006,21.4447665 C48.1510006,20.1697467 48.386422,16.2084214 48.4996054,14.3046557 L48.529599,13.8042599 C48.5516697,13.4299525 48.2658818,13.1087946 47.8912448,13.0867432 C47.5166079,13.0658227 47.1957331,13.3507939 47.1736623,13.7239704 L47.1442347,14.2243662 C47.1165047,14.6880098 47.0814179,15.2737838 47.0446333,15.9121418 C46.713572,16.0274873 46.2976231,15.9624641 45.3689537,15.3727321 C45.1827671,15.2545596 44.224104,14.3849452 43.5908431,8.85118968 C43.2920391,6.23782318 43.7017628,4.34423503 44.2608886,3.82461499 C44.387654,3.70644243 44.4832939,3.69569947 44.5942136,3.71605455 C44.9614936,3.78447024 45.3174553,3.54247092 45.3864971,3.17438317 C45.455539,2.80573 45.2127607,2.4512123 44.8437829,2.38223119 C44.2863549,2.27875951 43.7634477,2.43255347 43.3350487,2.83117385 C42.1358711,3.94674549 41.9842054,6.75178903 42.2416975,9.00498364 C42.9802189,15.4626338 44.2291973,16.256482 44.6394869,16.5171402 C45.3961177,16.9983117 46.0769156,17.3228622 46.7650704,17.3228622 C46.8318486,17.3228622 46.8991927,17.3087267 46.9665368,17.3019417 C46.8754242,18.9637081 46.7928003,20.6690117 46.7928003,21.4447665 C46.7928003,21.8840971 46.8601444,22.4314226 46.9920031,23.049991 C46.7877071,22.997407 46.5647359,23.0279397 46.3898676,23.1738178 C45.5596676,23.8647597 43.0492608,25.5943764 42.5495562,25.9375857 C39.1761262,26.9457277 35.6470691,27.9685707 32.5305653,28.8721102 C28.3614563,30.080976 24.7616596,31.1247394 22.5115744,31.8433869 C21.942828,32.0260172 21.3735157,32.202428 20.8155218,32.3748807 C17.1251784,33.5187233 14.210141,34.4216974 13.5451888,36.0834638 C13.4059732,36.4317619 13.5746164,36.8264243 13.9237871,36.9655174 C14.005845,36.9988771 14.0912985,37.0141434 14.1756201,37.0141434 C14.4444305,37.0141434 14.7002249,36.852999 14.8060514,36.5878175 C15.2310549,35.5265261 18.4115073,34.5410008 21.2178886,33.6713864 C21.7792781,33.4972374 22.3525518,33.3196958 22.9258255,33.1359347 C25.1578013,32.4229414 28.7496752,31.3814396 32.9085977,30.1754009 C35.3148759,29.4782393 37.9656302,28.7092695 40.6033684,27.9306876 C38.2033153,30.6899322 31.661883,39.570968 31.20632,40.2087606 C31.0823843,40.3812134 31.0467315,40.6022923 31.1106801,40.8047122 C31.1740628,41.0076977 31.3285581,41.1694075 31.5288926,41.2412157 L37.1569351,43.2654156 L31.3121465,44.3889031 C30.9833488,44.4522301 30.7496252,44.7451171 30.7615094,45.0798451 C31.0291881,52.3901471 32.1768673,60.1392141 34.171724,68.1116217 C34.4586438,69.2588568 34.8004576,70.5293532 35.1864128,71.9638211 C35.8258988,74.3408425 36.5508382,77.0356294 37.3629288,80.3936526 C37.4370639,80.7046331 37.715495,80.9132727 38.0222219,80.9132727 C38.0742862,80.9132727 38.1286142,80.9076185 38.1818104,80.8940484 C38.5462608,80.8064085 38.7709298,80.440017 38.6826468,80.0758872 C37.8665948,76.6997705 37.1077003,73.8788952 36.498208,71.6115651 C36.1145164,70.1855785 35.7744004,68.9224325 35.4891783,67.7825478 C33.5695886,60.112074 32.444546,52.6570248 32.1423464,45.6107735 L39.843908,44.1310721 C40.1449758,44.0733993 40.3690788,43.8223533 40.3928473,43.5175925 C40.4166158,43.2128317 40.2338247,42.9301222 39.9457731,42.8266505 L32.83899,40.2703913 C34.9962648,37.3234276 41.2213495,29.0168574 42.1619032,28.2484531 C42.4137362,28.0426405 42.4663665,27.6983004 42.3248873,27.4206797 C42.5637041,27.3494369 42.803087,27.2781941 43.040772,27.2069513 C43.1081161,27.1871616 43.1714988,27.156629 43.2297882,27.1170497 C43.353724,27.0322368 46.2908321,25.0227378 47.2596817,24.2164503 C47.2732637,24.2045765 47.2794888,24.1881794 47.291939,24.1757402 C47.7192061,25.5485774 48.4418819,27.174157 49.583336,28.9269558 C51.0201988,31.1315244 54.9120086,36.3571266 59.9996005,37.2612315 C60.6039997,37.3680957 61.1914213,37.4178526 61.7618654,37.4178526 C65.4527748,37.4178526 68.4323267,35.3433304 70.688071,33.4361722 C71.2590811,32.9538698 71.803493,32.4574319 72.3230046,31.958167 C71.1956984,36.0653704 65.7464856,41.9920921 60.7268036,45.9415436 C55.323996,41.5787708 51.4961348,34.5856689 49.6948217,29.4086928 C49.5708859,29.0547405 49.1837988,28.866456 48.8295349,28.9902828 C48.475271,29.1135441 48.2879525,29.5002907 48.4113224,29.8542429 C50.2279153,35.0719293 54.0478536,42.0757741 59.445568,46.6358781 C56.3086912,48.2207475 52.1090227,51.8366019 50.2126355,53.8155683 C48.4390523,50.816586 47.0089806,48.1251917 45.7424588,45.404961 C45.5851339,45.0651442 45.1805034,44.9170045 44.8403874,45.0758872 C44.7843616,45.1018965 44.7419179,45.1437375 44.6966445,45.182186 C44.8285032,39.0389088 45.5585358,31.9677791 47.9591549,27.2906333 C48.1306276,26.9576015 47.998769,26.5488036 47.665444,26.3774817 C47.332119,26.2072906 46.9218294,26.3379023 46.7509225,26.6714995 C42.3933632,35.1612654 43.3022256,50.8951793 43.6004637,56.0653704 C43.6978014,57.7525806 44.0894158,61.5160093 44.9524389,69.0564368 C44.9920531,69.4019078 45.2857639,69.6574771 45.6258799,69.6574771 C45.6519121,69.6574771 45.6779443,69.6557809 45.7045423,69.6529538 C46.0769156,69.6105474 46.3445942,69.2741231 46.3015846,68.901512 C45.441957,61.38879 45.0520403,57.6474127 44.9569663,55.9867772 C44.8420852,54.0021565 44.6372233,50.429274 44.6785352,46.3294211 C46.0356037,49.2102307 47.5777269,52.0723816 49.5176897,55.3020548 C49.631439,55.4914701 49.8300758,55.6130352 50.0502174,55.6294324 C50.2720568,55.6514837 50.4842756,55.5542316 50.624057,55.3840405 C51.1486619,54.7479442 52.2697431,53.6470734 53.636998,52.4546048 C54.3574101,53.8743719 56.1230705,56.1100385 57.25547,57.2425727 C56.976473,58.2987753 56.6561641,59.8497196 56.4167813,61.0263565 C55.9182086,60.981123 55.5056553,60.9432399 55.2164718,60.9160998 C52.1893829,60.631694 50.1418959,61.8343402 49.8640308,64.0519134 C49.8097028,64.4895477 49.5788087,66.483215 49.3784742,68.4327796 C48.7491747,68.3129108 48.1238366,68.4904524 47.6705373,68.943353 C47.2879775,69.3255762 46.7492247,69.8310608 46.19689,70.34955 C45.3678219,71.1281319 44.509892,71.9332885 44.0645155,72.4274647 C43.6032933,72.9402997 43.2286564,73.6809986 42.8325146,74.4658001 C42.5410675,75.0430929 42.2399997,75.6390445 41.8936587,76.166015 C41.4839349,76.7891067 41.0730793,77.5083196 40.6758057,78.2032195 C40.2757026,78.9043391 39.8620174,79.6280754 39.4687052,80.2166765 C38.5988911,81.5210981 38.4211932,82.1775495 38.1003184,83.5379476 L38.0182605,83.8913344 C37.6945561,85.2907464 37.0912888,87.8945008 36.1835582,89.1372917 C35.1179369,90.5960726 34.4450618,91.4600328 33.0234789,92.2420073 C32.6946812,92.4229414 32.5747068,92.8351318 32.7552343,93.1630748 C32.8791701,93.3881115 33.111196,93.5153308 33.3511447,93.5153308 C33.4614984,93.5153308 33.57355,93.4881907 33.6776787,93.4310834 C35.4337185,92.4653478 36.2893847,91.2937997 37.2808709,89.9367941 C38.3521514,88.4706627 38.9712643,85.7956655 39.3413739,84.1972261 L39.4223,83.848928 C39.7307247,82.5388522 39.8637151,82.0723816 40.598841,80.9692492 C41.0181854,80.3421995 41.4437548,79.5969773 41.8551763,78.8766335 C42.2422634,78.1992616 42.6429325,77.4987075 43.0288878,76.9101063 C43.4176726,76.3192435 43.7362837,75.6876705 44.0447084,75.077018 C44.3989723,74.3758985 44.733995,73.7132275 45.074677,73.3349622 C45.4815711,72.8831924 46.3179962,72.0983909 47.1266912,71.3384678 C47.6909103,70.8092356 48.2398496,70.2930081 48.631464,69.902869 C48.8606603,69.6727435 49.1504097,69.7502059 49.3032072,69.8163599 C49.8046095,70.0340462 50.2941275,70.7515629 50.2573429,71.8648728 C50.1843397,74.0524788 49.2935866,75.5751521 47.7797592,77.4664786 C47.6943058,77.572212 47.6439392,77.7022583 47.6331868,77.8379589 C47.590743,78.3920695 47.1029227,79.5353466 46.7118742,80.4535871 C46.461739,81.0416228 46.2246199,81.5968642 46.074086,82.0475032 C45.9212885,82.5066234 46.0067419,82.9465193 46.3083756,83.2552381 C47.2178039,84.1853523 49.8804424,83.4011162 50.1803783,83.3083875 C51.2471314,82.9810099 55.1157386,81.4492899 58.2356379,79.9311399 C58.3103389,79.8949531 58.3782489,79.8451962 58.4348406,79.7835656 C59.3499281,78.8048253 62.0550103,77.6327118 64.6712437,76.4990467 L65.5303054,76.1264356 C65.6525434,76.0732863 65.7555402,75.9862117 65.8279776,75.8742588 C66.7238239,74.4985944 69.4532406,73.3213921 70.422656,73.3213921 C70.4254856,73.3208267 70.4283152,73.3213921 70.4311448,73.3213921 C70.8046499,73.3213921 71.1085472,73.0194584 71.1102449,72.6457164 C71.1119427,72.2708436 70.8091772,71.9655174 70.4345403,71.9638211 L70.4237879,71.9638211 C69.0186165,71.9638211 66.0407623,73.2857707 64.8110251,74.9588455 L64.131359,75.2545596 C61.2168876,76.5165747 58.6889372,77.6123567 57.5339011,78.7629843 C54.4926642,80.2353353 50.8006231,81.6980742 49.780841,82.0118818 C49.672185,82.0452415 49.5618312,82.0757741 49.4503456,82.104045 C49.5414582,81.1575337 49.7151947,79.3368846 49.9211884,77.2007317 C49.9313749,77.0978254 49.9132655,77 49.8804424,76.9089755 C50.9149383,75.380648 51.549331,73.8692831 51.6144114,71.9101063 C51.6517619,70.7967964 51.2941025,69.808444 50.6698963,69.159343 C50.8809833,67.0520265 51.1526233,64.6976219 51.2114787,64.2198429 C51.4706686,62.1538019 54.0122009,62.1685028 55.0897064,62.2668857 C55.7886137,62.3324743 57.1830327,62.4579973 58.8779535,62.610095 C63.2785224,63.0064537 69.9280448,63.6035362 71.3020907,63.7754235 C71.8221683,63.8404467 72.1900142,64.0236425 72.4248696,64.3357537 C72.742349,64.7581217 72.8419503,65.468288 72.7049985,66.3350752 C72.4724067,67.8079917 71.6863482,71.346949 71.6778595,71.382005 C71.6037244,71.7161676 71.796702,72.0361948 72.1079562,72.1538019 C71.7746313,72.0712507 71.4254606,72.2391802 71.3049203,72.5699503 C71.1770231,72.9222063 71.3586824,73.3112146 71.7112486,73.4395647 C72.2301943,73.6278492 72.9421176,74.3029594 72.6444454,75.3127977 C72.2969725,76.4933926 70.2806109,78.1291497 68.3530983,79.5726643 C66.178846,81.2022018 64.5020345,82.4020208 61.8705215,84.0750956 C60.1167453,85.1906672 57.7319719,86.0642396 55.9900801,86.7025976 C55.1649734,87.0045313 54.5130372,87.2437035 54.0687925,87.4523431 C53.7292425,87.6117913 53.5838019,88.0160659 53.7433904,88.3553172 C53.8594033,88.6007091 54.1038794,88.7448909 54.3585419,88.7448909 C54.4553137,88.7448909 54.5537832,88.7239704 54.6471595,88.6804332 C55.0370762,88.4972374 55.6952374,88.2558035 56.4580932,87.9764865 C58.2571427,87.317208 60.7217104,86.4142339 62.5999882,85.2206344 C65.26772,83.5238121 66.9666022,82.3081613 69.1680185,80.6582687 C70.5963925,79.588496 71.7435058,78.6538585 72.5737058,77.7848095 C72.688021,77.871884 72.8232751,77.9323838 72.9777704,77.9323838 C73.3020407,77.9323838 73.6517773,78.4412609 73.6517773,79.5596597 C73.6517773,80.844857 71.5012934,84.0451284 69.8957875,85.4959935 C68.1861529,87.041849 67.5138437,87.6304501 65.9173924,88.6940032 C64.2790633,89.7846964 59.1088475,92.3234276 57.6748144,92.9267297 C57.3296051,93.0720423 57.167187,93.4695319 57.3126276,93.8155683 C57.4218495,94.0750956 57.6736825,94.2305858 57.9390975,94.2305858 C58.0268146,94.2305858 58.1156635,94.2136232 58.2022488,94.1774364 C59.6368479,93.573569 64.907231,90.9969547 66.6706277,89.8231449 C68.3644167,88.695134 69.1176519,88.0296359 70.8069135,86.5018738 C71.4011262,85.9652912 72.1011652,85.1720084 72.7593265,84.2893894 C73.2958156,85.0091677 73.3869282,85.530484 73.0949151,86.0772442 C72.4627861,87.2617969 70.4102059,90.3173211 69.7673244,91.0308798 C69.069549,91.8055038 67.9303585,92.6078334 66.7209943,93.1766448 C65.3893921,93.8025637 61.3374278,95.7074602 60.0873176,96.1761925 C59.7358833,96.3079351 59.5576195,96.6986396 59.6894781,97.0497648 C59.7913432,97.3222968 60.0505331,97.4902262 60.3255686,97.4902262 C60.404231,97.4902262 60.4851571,97.4760907 60.5638196,97.4472544 C61.8659941,96.9587324 65.9553089,95.0363079 67.2987953,94.4047349 C68.6637866,93.7629843 69.9642634,92.840786 70.776354,91.9383773 C70.8250229,91.8846625 70.878785,91.821901 70.9370744,91.7506582 C70.8476595,91.8857933 70.7531514,92.0271481 70.6518523,92.1758533 C70.3977557,92.5484644 70.1968552,92.8424822 70.0734854,93.0686498 C69.8097681,93.552083 69.2104623,93.9218671 68.5166483,94.3498892 C68.2342558,94.5246037 67.9433746,94.7044069 67.6581525,94.9023036 C66.6378045,95.607381 60.5513694,98.9439184 58.8207959,99.6557809 C58.1767825,99.9209624 57.3488463,100.326368 56.4722412,100.756086 C54.8288188,101.562374 52.9652548,102.475525 51.6466687,102.805165 C50.5601084,103.076566 49.0032713,103.586574 47.3547557,104.125983 C45.7866003,104.639384 44.1658146,105.170312 43.0486948,105.456414 C42.9462639,105.482423 42.850624,105.53218 42.7702638,105.602292 C41.4545072,106.75292 40.2575932,107.612357 38.3583765,108.342313 C36.5055649,109.054741 32.348906,108.853451 30.3998886,107.118181 C28.7757074,105.672404 27.642742,102.598221 27.8210058,100.119424 C28.0377519,97.1085684 30.0988209,95.6837126 32.0914139,94.306352 L32.145176,94.2690343 C32.4536006,94.0558714 32.5305653,93.6335034 32.3172147,93.32535 C32.1808287,93.1285842 31.9601212,93.0386826 31.7377159,93.0449022 C31.7456387,92.983837 31.7563912,92.9222063 31.7467706,92.8577485 C31.6890471,92.4873991 31.335915,92.240311 30.9720305,92.2906333 C30.6251235,92.3437827 30.090898,92.4432964 29.4644281,92.5671232 C28.8934181,91.6387052 27.6602854,90.65318 25.0010424,90.9098802 C24.1510354,90.9924313 23.1046552,91.0817675 21.9920628,91.1767579 C20.1035985,91.3379023 17.9616034,91.5210981 16.2972421,91.7116443 C9.7218549,92.4659132 6.5204636,93.7398021 4.87760715,96.2553512 C4.19907292,97.2945912 3.73105973,98.7725964 3.31737455,100.076453 C3.01291132,101.037099 2.55961197,102.468175 2.22572106,102.746361 C2.22232556,102.744099 2.21949597,102.742403 2.21610047,102.740141 C1.03276846,101.951947 1.15330874,99.0128995 2.10631262,97.394105 C3.0864805,95.7295115 3.84650675,95.0453546 5.08077128,94.22267 C5.39202552,94.0145958 5.47691303,93.5933586 5.26865565,93.2812474 C5.05983236,92.9702669 4.6399221,92.8854541 4.32697011,93.0935283 C2.94669905,94.0128995 2.04292993,94.8242757 0.93543077,96.7059901 C-0.211116652,98.6538585 -0.586319486,102.504362 1.4622993,103.868718 C1.74808729,104.059264 2.01237043,104.12146 2.23647348,104.12146 C2.39379835,104.12146 2.53075021,104.091493 2.6416699,104.051913 C3.58731686,103.720012 4.01741363,102.363572 4.61219217,100.486381 C4.99927926,99.2650764 5.43786478,97.8809307 6.0150999,96.9966154 C7.38857996,94.8932569 10.4122734,93.7522414 16.4517374,93.0601685 C18.0974234,92.8713186 20.2281002,92.6892537 22.1080757,92.5281093 C23.2263273,92.4325535 24.2772348,92.3432173 25.1312033,92.2606661 C26.4373392,92.1328814 27.3801566,92.3432173 27.9630509,92.8724494 C25.847088,93.3123454 23.5087198,93.8280075 23.3553564,93.8619326 C23.1680379,93.9032082 23.0067516,94.0213808 22.9116776,94.187614 C20.9581328,97.6027446 20.6072644,101.878443 21.9948924,105.344461 C23.3140444,108.640854 25.5426248,110.706329 31.1661399,113.846101 C31.268005,113.902643 31.3823202,113.932045 31.4972013,113.932045 C31.5577544,113.932045 31.6183075,113.923563 31.6782946,113.907732 C34.1694604,113.220748 37.0754431,111.997181 40.8229441,110.056663 C41.1562691,109.884776 41.285864,109.474847 41.1132594,109.14238 C41.0102626,108.943918 40.8212463,108.829138 40.6163845,108.795779 C41.7272791,108.195869 42.6344437,107.515105 43.5427402,106.729738 C44.6921172,106.426673 46.2591408,105.912707 47.7774956,105.415704 C49.2681204,104.928313 50.801189,104.426221 51.8413441,104.157081 C51.827762,104.20288 51.8062572,104.244721 51.8028617,104.293913 C51.6710031,106.313024 51.5402763,108.454831 51.4293566,110.357466 C51.1147069,108.600144 50.8628739,106.922546 50.7372404,105.420793 C50.705549,105.047051 50.3835424,104.778477 50.0038122,104.801094 C49.6303071,104.832192 49.352442,105.160135 49.3835674,105.533311 C49.6801078,109.087535 50.6314139,113.503457 51.5510287,117.775197 L51.7836205,118.857409 C51.8520965,119.175175 52.133923,119.393426 52.4474409,119.393426 C52.494412,119.393426 52.542515,119.388338 52.5906179,119.378726 C52.9567661,119.299567 53.1904897,118.93883 53.1123932,118.573004 L52.8792354,117.489661 C52.7536019,116.906714 52.6279684,116.32094 52.5029008,115.735166 C52.5606243,114.304656 52.8362258,109.314268 53.1582324,104.382118 C53.1723803,104.160474 53.0705153,103.964839 52.9137564,103.830835 C54.2080081,103.375107 55.7099512,102.641758 57.0709811,101.973999 C57.9260814,101.554458 58.7347765,101.158099 59.3380438,100.910446 C60.5977746,100.392522 63.8993332,98.6340688 66.1975213,97.3403902 C66.5557466,103.874372 66.7606085,109.431875 66.7606085,112.59709 C66.7606085,112.60331 66.764004,112.608399 66.764004,112.614618 C66.3090069,114.790916 65.8494824,116.827555 65.3984467,118.541906 C65.3028068,118.904904 65.518987,119.275819 65.8817397,119.37081 C65.9400291,119.386076 65.9977526,119.393426 66.0554761,119.393426 C66.355978,119.393426 66.6310135,119.192137 66.7113737,118.887942 C67.8443391,114.587365 69.0169187,108.344009 70.0519805,102.836263 C70.4803795,100.555928 70.8850101,98.4016816 71.2562515,96.5471074 C71.3298207,96.1790196 71.0910038,95.8222402 70.7237238,95.7487358 C70.3570097,95.6780584 69.9982184,95.9138381 69.9246493,96.280795 C69.5517101,98.1432851 69.1465137,100.300924 68.7169828,102.586347 C68.4781659,103.856278 68.2319921,105.165789 67.981291,106.480953 C67.8839533,103.779381 67.7373808,100.614166 67.5489306,97.1798112 C67.5387441,96.9858725 67.4448019,96.8207701 67.30785,96.7054247 C67.825098,96.4034909 68.2229375,96.1614916 68.4306289,96.0178752 C68.6966098,95.834114 68.967684,95.66675 69.2308353,95.5044748 C70.0531124,94.9972939 70.8295502,94.5172532 71.266438,93.7177508 C71.3575506,93.5509522 71.5505282,93.2676773 71.7740653,92.9397343 C72.4350561,91.9706062 73.1950824,90.851642 73.4576678,89.8598971 C73.4684202,89.8932569 73.4684202,89.927182 73.4848318,89.9594109 C74.4785817,91.9457277 75.9228013,94.3464967 78.2962564,95.2952697 C78.7908677,95.4931664 79.250958,95.6610958 79.6776593,95.8177169 C80.9073965,96.267225 81.7953199,96.5923409 82.3442592,97.1905542 C82.4783815,97.3364322 82.6611726,97.4105021 82.8450956,97.4105021 C83.0092114,97.4105021 83.1733273,97.3516986 83.3034882,97.2323952 C83.5802215,96.9790875 83.5988967,96.5499345 83.345366,96.2734446 C82.5728896,95.4315357 81.5016091,95.0397004 80.1445406,94.5432625 C79.7297236,94.3911648 79.2815175,94.2271933 78.7999223,94.0349509 C77.2804357,93.4276909 76.0156117,91.9841762 74.6992892,89.3532817 C74.5317779,89.0174229 74.1231859,88.8822877 73.7887291,89.0496517 C73.68743,89.099974 73.6115972,89.1763056 73.5493463,89.2622493 C73.5600987,88.9275212 73.4933206,88.6165408 73.3122272,88.3434434 C73.7287419,87.6926462 74.0869673,87.1023488 74.292961,86.7156022 C75.1180677,85.1697467 74.197887,83.8483626 73.5697193,83.1184067 C74.3710575,81.8614803 74.9703634,80.5700634 75.0037525,79.6422108 C75.0337461,79.682921 75.0563827,79.7264583 75.0909037,79.7654722 C75.918274,80.7198994 77.4971819,81.2768371 78.8916008,81.2768371 C79.3341478,81.2768371 79.7512284,81.2135102 80.1258654,81.0964684 C80.1801934,81.2095522 80.2407465,81.3209398 80.3103542,81.4272385 C80.7778015,82.1379702 81.542921,82.5739082 82.4093396,82.6219688 C82.4732882,82.6253613 82.5389346,82.627623 82.6045809,82.627623 C84.079926,82.6270576 85.9355672,81.7563124 86.7487896,81.0144827 C87.5229638,81.3141547 88.365048,81.448159 89.0769713,81.1541412 C89.1703476,81.267225 89.2597624,81.3791779 89.3469136,81.4888692 C89.623081,81.835471 89.9037757,82.1877271 90.2501168,82.4512123 C89.6145922,82.979879 89.1477109,83.5334242 88.6191446,84.473716 C88.4352216,84.7999627 88.5512346,85.2138494 88.8783345,85.3976106 C89.2031707,85.5802409 89.6191196,85.4648954 89.8030425,85.1386487 C90.4329079,84.0196845 90.8913005,83.6007091 92.1414107,82.7424031 C92.4006006,82.5642961 92.5035975,82.2318297 92.39098,81.9395081 C92.2777967,81.6460557 91.9738993,81.4719066 91.6677384,81.5103551 C91.1974615,81.5731166 91.0231591,81.4136685 90.4097053,80.6441333 C90.2105026,80.3936526 89.9852677,80.1109432 89.7091003,79.8129674 C89.4538719,79.5387392 89.0254729,79.522342 88.7504373,79.7762151 C88.1664112,80.3150594 86.6276834,79.599239 85.7414577,78.8755027 C85.3328658,78.5413401 85.0131228,77.6655061 85.14102,77.2323952 C85.1693158,77.1379702 85.2015731,77.0735124 85.3866279,77.0531573 C85.9961203,76.9858725 86.4912975,76.9954846 87.0153364,77.0045313 C87.657652,77.0181014 88.3220383,77.0294097 89.1635565,76.8891858 C90.0152613,76.7467003 91.2200982,76.9768258 92.1883818,77.1605869 C92.7112889,77.2595353 93.1628905,77.3449135 93.5352638,77.3737499 C93.8640614,77.3991938 94.2030456,77.5897399 94.4412966,77.8831924 C94.6852067,78.1834299 94.7927309,78.5498214 94.744062,78.9133858 C94.5873031,80.0894572 94.3547113,81.1648841 93.8861322,82.8792345 C93.7633282,83.3321351 93.6071352,83.838185 93.4424534,84.372506 C92.9608582,85.9387165 92.4141826,87.7146975 92.3519318,89.1502963 C92.343443,89.3402771 92.4158804,89.5251691 92.5500026,89.6591734 C92.5867872,89.6953602 93.4447171,90.5457504 94.5754188,91.0670666 C95.3286541,91.4147993 97.1322309,93.3626677 97.2058001,95.5621475 C97.2782374,97.7327909 95.5567186,100.960768 93.9031097,102.612357 C92.4062598,104.107324 89.1692157,103.807087 87.0877738,102.586347 C85.317586,101.549934 84.8648526,100.14091 84.4273989,98.7788161 C84.3532638,98.5475597 84.2796946,98.3196958 84.202164,98.0980516 C84.0782282,97.7446647 83.6900093,97.5580765 83.3368772,97.6819032 C82.9826133,97.8051646 82.7964267,98.193042 82.9203625,98.5464289 C82.9939317,98.7573301 83.0629735,98.9733202 83.1337131,99.1938336 C83.2225621,99.4691926 83.3159383,99.7581217 83.4228966,100.053836 C83.3912053,100.013126 83.365739,99.969023 83.3232952,99.9350979 C83.0301503,99.7010144 82.6028832,99.749075 82.3685936,100.041397 C81.5174548,101.104384 81.4489788,103.374541 81.8734164,104.868378 C82.5276162,107.169634 84.0708713,110.237597 87.7029253,111.782887 C90.7707602,113.088439 94.2568077,114.406997 97.5900576,115.304316 L97.444617,120.563844 C97.4338646,120.938717 97.7292731,121.250828 98.104476,121.261571 C98.110701,121.261571 98.1169261,121.261571 98.1237171,121.261571 C98.4892994,121.261571 98.7914989,120.969815 98.8016855,120.601727 L98.9392032,115.643568 C100.994047,116.128697 102.960608,116.428369 104.693445,116.428369 C106.309704,116.428369 107.725627,116.170538 108.825204,115.567802 C113.948448,112.761062 115.446996,109.162736 116.552232,103.087874 C117.64049,97.1085684 115.989144,89.0886657 114.392693,81.3339444" id="Fill-39" fill="#2565C1" mask="url(#mask-27)"></path>
                        </g>
                        <path d="M60.0690682,18.7161597 C58.3311377,22.2975235 56.622069,24.3963587 54.7251159,25.3078141 L52.4467349,26.2560217 C52.2226319,26.3493158 52.065307,26.5551284 52.0341816,26.7954314 L51.2860396,32.5706208 C51.2271842,30.650458 50.9617693,29.2453918 50.5197883,27.4767613 C50.4292416,27.1131969 50.0585661,26.8921181 49.6963793,26.9831505 C49.3324948,27.0736176 49.1112214,27.4422707 49.202334,27.8058351 C49.6816655,29.7209092 49.9408554,31.1842135 49.9408554,33.4255343 C49.9408554,33.5623657 49.9827332,33.6969354 50.0596979,33.8094538 L51.1038144,35.3264729 C51.2328434,35.5136266 51.4433645,35.6210562 51.6635061,35.6210562 C51.7167023,35.6210562 51.7698984,35.6148366 51.8230946,35.601832 C52.0964324,35.5362434 52.3007284,35.3083795 52.337513,35.029628 L53.3312629,27.3580233 L55.2797144,26.5460816 C57.0312269,25.705869 58.588064,24.0955558 60.0894412,21.55739 C62.1069346,23.6138188 68.4650098,25.804252 72.986119,25.804252 C73.6533349,25.804252 74.2809366,25.7567568 74.8479853,25.6538505 C75.2175289,25.5865656 75.4614391,25.2331788 75.3946609,24.8645256 C75.3273168,24.4964379 74.9736188,24.251046 74.605207,24.3183309 C70.6573714,25.036413 62.8867679,22.6107656 60.9909467,20.5447246 C60.920773,20.4689585 60.8364514,20.4163745 60.7464706,20.3801877 C60.9286958,20.0352821 61.1103551,19.6813299 61.2914485,19.3081533 C61.4549984,18.9711636 61.3140852,18.5651928 60.9767988,18.4017867 C60.6383805,18.2383806 60.2331841,18.3786045 60.0690682,18.7161597" id="Fill-41" fill="#2565C1"></path>
                        <path d="M72.2964928,22.727355 C72.5222936,22.8590976 72.7695993,23.0061065 73.0344483,23.163293 C75.4944886,24.6277281 79.1655908,26.8119416 82.3630207,26.8119416 C82.4880883,26.8119416 82.61259,26.8085491 82.7359599,26.8017641 C83.1105968,26.7808436 83.3975166,26.4608165 83.3765777,26.0865091 C83.3562047,25.7122017 83.0251434,25.4334502 82.660693,25.4464548 C79.7756492,25.6109917 75.9964568,23.3470542 73.7288282,21.9973991 C73.4605837,21.8379509 73.2098825,21.6892457 72.9806862,21.5552414 C72.6575477,21.3663915 72.2404671,21.4760828 72.0520168,21.798937 C71.8630006,22.1229221 71.9727884,22.538505 72.2964928,22.727355" id="Fill-43" fill="#2565C1"></path>
                        <path d="M84.1299261,8.29594029 C86.6533491,9.94752912 90.1207213,14.348185 90.5700592,17.1289155 C91.0012878,19.8033473 90.8852749,23.6012665 90.2938918,26.1614837 C89.8530427,28.0686419 89.1275373,29.5421237 88.5440771,30.7255456 C88.4014661,31.016171 88.2690416,31.2836142 88.1558582,31.529006 C87.9990993,31.8693882 88.1479354,32.2725319 88.4880514,32.4297184 C88.5802958,32.4715594 88.6770676,32.4919145 88.7721416,32.4919145 C89.0290678,32.4919145 89.2746757,32.3460364 89.3895568,32.0978175 C89.4982128,31.8614724 89.6249782,31.6042067 89.762496,31.3248897 C90.3442584,30.1442949 91.1416352,28.5266312 91.6164394,26.4662445 C92.2429093,23.7567568 92.3668451,19.7388895 91.9107161,16.9129255 C91.3872431,13.6719439 87.6985974,9.00949904 84.8735408,7.16057899 C84.5617207,6.9553319 84.1395467,7.04240642 83.933553,7.35621395 C83.7281252,7.67002149 83.8158423,8.0906932 84.1299261,8.29594029" id="Fill-45" fill="#2565C1"></path>
                        <path d="M48.05822,26.1389234 C48.1725352,26.1389234 48.2879822,26.1100871 48.3949405,26.0495872 C48.7203426,25.8635644 48.833526,25.4491123 48.6473394,25.1239964 C48.1097184,24.1837046 48.0638791,20.779317 48.540947,17.2053036 C48.9087929,14.4488861 51.0609745,10.4078367 52.8402169,8.36328169 C54.6166297,6.32211919 57.9261111,4.54274567 59.5338807,5.30662671 C59.8722989,5.46664028 60.2780613,5.3241547 60.4387817,4.98546873 C60.6000679,4.64734819 60.4563251,4.2425082 60.1179068,4.08136379 C57.6471141,2.90642316 53.7094651,5.29644917 51.8159075,7.47274681 C49.9144271,9.65696031 47.6077502,13.9303969 47.194631,17.0260658 C47.1029524,17.7141807 46.3299101,23.8071356 47.4679688,25.796845 C47.5936023,26.0162275 47.8227986,26.1389234 48.05822,26.1389234" id="Fill-47" fill="#2565C1"></path>
                        <path d="M64.2857708,36.1900373 C64.5511858,36.1900373 64.8030188,36.0339817 64.9122407,35.7750198 C65.0576813,35.4295488 64.8952632,35.0314938 64.550054,34.8861812 C62.5948115,34.0634966 58.319876,33.3097931 55.9458551,33.6055072 C55.5729159,33.6518715 55.3097646,33.9911229 55.3561698,34.3631686 C55.4025749,34.7346489 55.7466523,34.999265 56.1139323,34.9523352 C58.1931106,34.691677 62.2677116,35.3984508 64.0226195,36.1368879 C64.1092048,36.1730747 64.1980537,36.1900373 64.2857708,36.1900373" id="Fill-49" fill="#2565C1"></path>
                        <path d="M79.8506897,38.3710845 C80.0951658,38.3710845 80.3305872,38.2393419 80.4516934,38.0086509 C80.6265616,37.67675 80.4992304,37.2662558 80.1676031,37.0921068 C78.1320004,36.0217686 74.2090652,35.890026 72.4037906,36.2699876 C72.0365106,36.3468845 71.8016552,36.7070564 71.8791858,37.0734479 C71.9561505,37.4404048 72.3189031,37.6761846 72.6833535,37.5975913 C74.4625959,37.223284 77.9724119,37.4709375 79.5349081,38.2930567 C79.6356413,38.346206 79.7442974,38.3710845 79.8506897,38.3710845" id="Fill-51" fill="#2565C1"></path>
                        <path d="M69.4663429,39.8116589 C69.1301884,39.6431641 68.7227283,39.7799955 68.5552169,40.1152889 C67.7221874,41.779317 67.3588688,45.6286894 67.5637307,47.2587923 C67.6067404,47.6020016 67.8987534,47.853613 68.2360398,47.853613 C68.2643357,47.853613 68.2931974,47.8519168 68.3220592,47.8479588 C68.6938665,47.8015945 68.9581497,47.4623431 68.9111786,47.0908628 C68.7357444,45.6908854 69.0866128,42.0869049 69.7696743,40.7219835 C69.9377516,40.38669 69.8019316,39.979023 69.4663429,39.8116589" id="Fill-53" fill="#2565C1"></path>
                        <path d="M65.4585202,53.9604207 C66.0227392,54.0531494 66.6141223,54.0989483 67.2264443,54.0989483 C68.7357444,54.0989483 70.3712439,53.8196313 72.043528,53.2717404 C72.4000556,53.1546986 72.5935991,52.7713446 72.4770203,52.415696 C72.3598755,52.0594821 71.9750521,51.8638471 71.6202222,51.9820197 C69.4753976,52.6848355 67.4211196,52.9053489 65.67753,52.6215085 C63.8688599,52.3257944 61.3007295,51.6139319 60.0144007,50.5809115 C59.7218217,50.346828 59.2945545,50.3926269 59.0591331,50.6849485 C58.8242776,50.9767047 58.8706828,51.4041615 59.1632618,51.6388104 C60.6538866,52.8358023 63.3929239,53.6228655 65.4585202,53.9604207" id="Fill-55" fill="#2565C1"></path>
                        <path d="M73.1768896,41.1415809 C73.1768896,41.8263033 73.7326199,42.3815447 74.4179451,42.3815447 C75.1032703,42.3815447 75.6590006,41.8263033 75.6590006,41.1415809 C75.6590006,40.4568585 75.1032703,39.9016171 74.4179451,39.9016171 C73.7326199,39.9016171 73.1768896,40.4568585 73.1768896,41.1415809" id="Fill-57" fill="#2565C1"></path>
                        <path d="M59.0596424,38.7473708 C59.0596424,39.4320932 59.6148068,39.9867692 60.300698,39.9867692 C60.9860232,39.9867692 61.5417535,39.4320932 61.5417535,38.7473708 C61.5417535,38.0626484 60.9860232,37.507407 60.300698,37.507407 C59.6148068,37.507407 59.0596424,38.0626484 59.0596424,38.7473708" id="Fill-59" fill="#2565C1"></path>
                        <path d="M80.2281562,105.211467 C79.8914357,105.044103 79.4845416,105.179238 79.3170302,105.514531 C79.1489529,105.849825 79.2847729,106.257492 79.6203616,106.424856 C82.3486464,107.788646 84.4481977,110.263485 85.3180119,112.110709 C85.4340248,112.356666 85.6785009,112.500848 85.9331634,112.500848 C86.0299352,112.500848 86.1284047,112.479362 86.221781,112.435825 C86.5607651,112.276377 86.7067717,111.872102 86.5471831,111.533416 C85.3632852,109.018998 82.8828719,106.53794 80.2281562,105.211467" id="Fill-61" fill="#2565C1"></path>
                    </g>
                </g>
            </g>
        </g>
    </g>
</svg>