<?xml version="1.0" encoding="UTF-8"?>
<svg  viewBox="0 0 157 168" version="1.1" xmlns="http://www.w3.org/2000/svg" xmlns:xlink="http://www.w3.org/1999/xlink">
    <title>编组</title>
    <defs>
        <path d="M1.67535684,5.04942737 L58,13 L56.2779132,7.59975889 L0,0 C0,0 1.48382155,4.45027125 1.67535684,5.04942737" id="path-1"></path>
        <linearGradient x1="0.00103725071%" y1="49.9993059%" x2="100.000335%" y2="49.9993059%" id="linearGradient-3">
            <stop stop-color="#BFEDFF" offset="0%"></stop>
            <stop stop-color="#E8FFF6" offset="100%"></stop>
        </linearGradient>
        <path d="M12.0870303,3.0293219 C12.6679967,4.19413069 15.6189094,5.01376761 17.4096393,5.26182332 L17.4096393,5.26182332 C20.2158937,5.65028793 24.6676364,6.13586869 26.7960967,7.68855705 L26.7960967,7.68855705 C28.9251403,9.24124541 27.7637907,10.0175896 25.3448472,9.24124541 L25.3448472,9.24124541 C23.9490113,8.79369206 21.3941589,8.82996436 18.943134,8.86682169 L18.943134,8.86682169 C17.1454045,8.8937334 15.4030886,8.9206451 14.2160739,8.75566465 L14.2160739,8.75566465 C11.4098194,8.36778508 8.31308175,7.20297629 8.21625402,4.7768276 L8.21625402,4.7768276 C6.5713491,5.55258674 4.4423055,8.17355278 3.08788379,10.0175896 L3.08788379,10.0175896 C1.73287879,11.8616264 -0.686648021,16.7139238 0.184801605,19.1412426 L0.184801605,19.1412426 C0.57211255,17.1029734 2.14702151,14.5680078 3.86250568,13.8998955 L3.86250568,13.8998955 C6.66817684,19.7233544 11.336907,22.3244292 14.5059738,23.6056604 L14.5059738,23.6056604 C17.747953,24.9155583 20.9899323,25.4491121 26.6992689,25.8381618 L26.6992689,25.8381618 C27.5701353,27.7787297 28.1505184,28.9435385 29.8444205,30.2446609 L29.8444205,30.2446609 C31.1994255,28.982151 33.7630273,25.9346929 36.7635205,22.8287311 L36.7635205,22.8287311 C38.21477,23.9935399 38.1185255,25.8381618 37.9242868,27.3908501 L37.9242868,27.3908501 C37.7312146,28.9435385 37.2470759,29.7198827 35.6984154,32.9229606 L35.6984154,32.9229606 C37.5375591,33.4079563 38.7951531,31.4673884 40.0539137,30.8846915 L40.0539137,30.8846915 C41.3109243,30.3025796 41.8434769,29.3805612 42.6659293,28.0700782 L42.6659293,28.0700782 C43.8529441,26.1792384 44.1655926,24.1877722 43.9241066,22.4408516 L43.9241066,22.4408516 C43.7042026,20.8554011 43.8972748,19.4554075 43.3437235,17.9764338 L43.3437235,17.9764338 C42.7627571,16.4231604 41.6504047,15.1132624 39.7628471,13.5114309 L39.7628471,13.5114309 C39.3761195,11.9587426 37.585973,9.92047344 35.5047599,10.2112369 L35.5047599,10.2112369 C35.4085155,8.94989696 34.2331668,5.37473548 31.7313947,3.22413924 L31.7313947,3.22413924 C29.0213847,0.894521666 26.2157136,0.214708601 22.3449373,0.0210613342 L22.3449373,0.0210613342 C22.0643702,0.00702044473 21.77972,0 21.49157,0 L21.49157,0 C17.8033665,0 13.6129421,1.13906716 12.0870303,3.0293219" id="path-4"></path>
        <linearGradient x1="0.000448959797%" y1="49.9994345%" x2="100.000447%" y2="49.9994345%" id="linearGradient-6">
            <stop stop-color="#BFEDFF" offset="0%"></stop>
            <stop stop-color="#E8FFF6" offset="100%"></stop>
        </linearGradient>
        <path d="M4.07883657,0 C3.66586528,0.00877072298 3.30038267,0.291772718 3.21502325,0.701657839 L3.21502325,0.701657839 L0.01825272,15.9475132 C-0.0809325259,16.4223017 0.23405577,16.8853959 0.721566282,16.9818738 L0.721566282,16.9818738 C0.782880797,16.9941529 0.842993068,17 0.903105338,17 L0.903105338,17 C1.32268898,17 1.69839067,16.7134897 1.78555346,16.2977574 L1.78555346,16.2977574 L4.98172287,1.05190204 C5.08090812,0.577113572 4.76652095,0.114019399 4.27840931,0.017541446 L4.27840931,0.017541446 C4.22430827,0.00701657839 4.17020722,0.00116942973 4.1167073,0 L4.1167073,0 L4.07883657,0 Z" id="path-7"></path>
        <linearGradient x1="0.00452023839%" y1="49.9991267%" x2="100.000848%" y2="49.9991267%" id="linearGradient-9">
            <stop stop-color="#BFEDFF" offset="0%"></stop>
            <stop stop-color="#E8FFF6" offset="100%"></stop>
        </linearGradient>
        <path d="M0.415589263,0.142057748 C-0.0040220624,0.408863687 -0.126233108,0.962769529 0.142872003,1.37879579 L0.142872003,1.37879579 L9.33639359,15.587555 C9.50917473,15.8549578 9.80055476,16 10.097955,16 L10.097955,16 C10.2647159,16 10.4338849,15.9540401 10.5849931,15.8579423 L10.5849931,15.8579423 C11.0046045,15.5911363 11.1262135,15.0372305 10.8565064,14.6212042 L10.8565064,14.6212042 L1.66298477,0.412444975 C1.49020363,0.145639036 1.1988236,3.39287735e-14 0.901423323,3.39287735e-14 L0.901423323,3.39287735e-14 C0.734662437,3.39287735e-14 0.566095477,0.0459598597 0.415589263,0.142057748" id="path-10"></path>
        <linearGradient x1="-0.0014398843%" y1="49.9987376%" x2="100.00088%" y2="49.9987376%" id="linearGradient-12">
            <stop stop-color="#BFEDFF" offset="0%"></stop>
            <stop stop-color="#E8FFF6" offset="100%"></stop>
        </linearGradient>
        <path d="M0.0914631756,0.496488338 C-0.118185542,0.945027313 0.0446267599,1.49310674 0.456675702,1.72132143 L0.456675702,1.72132143 L9.78325575,6.8998526 C9.90536498,6.96783144 10.0347227,7 10.1624077,7 L10.1624077,7 C10.4668444,7 10.7606871,6.81852077 10.9090025,6.50290471 L10.9090025,6.50290471 C11.1180936,6.05497269 10.9547237,5.50628631 10.5432323,5.27867857 L10.5432323,5.27867857 L1.2166523,0.0995404491 C1.09510065,0.0321685598 0.965185357,1.7250669e-14 0.837500367,1.7250669e-14 L0.837500367,1.7250669e-14 C0.532506089,1.7250669e-14 0.238663339,0.181479234 0.0914631756,0.496488338" id="path-13"></path>
        <linearGradient x1="0.00222034511%" y1="49.9974335%" x2="99.9987498%" y2="49.9974335%" id="linearGradient-15">
            <stop stop-color="#BFEDFF" offset="0%"></stop>
            <stop stop-color="#E8FFF6" offset="100%"></stop>
        </linearGradient>
        <path d="M0.847379958,0.00836020542 C0.309446773,0.0764361639 -0.0657944238,0.529678729 0.00964742528,1.01994506 L0.00964742528,1.01994506 L2.04132922,14.2284725 C2.10955489,14.6763406 2.53137323,15 3.01420107,15 L3.01420107,15 C3.06012219,15 3.1053873,14.9970142 3.15196444,14.9910426 L3.15196444,14.9910426 C3.69055364,14.9229667 4.06579484,14.4697241 3.99035299,13.9794578 L3.99035299,13.9794578 L1.9586712,0.771527529 C1.88978951,0.322465066 1.46665914,0 0.981863254,0 L0.981863254,0 C0.937254161,0 0.892645068,0.00298578765 0.847379958,0.00836020542" id="path-16"></path>
        <linearGradient x1="0.00163480047%" y1="49.9995645%" x2="99.9932144%" y2="49.9995645%" id="linearGradient-18">
            <stop stop-color="#BFEDFF" offset="0%"></stop>
            <stop stop-color="#E8FFF6" offset="100%"></stop>
        </linearGradient>
        <path d="M0.0135425136,0.778951339 C-0.0705034467,1.2919653 0.245393439,1.7810889 0.718369325,1.87162077 L0.718369325,1.87162077 L16.9792339,4.98616874 C17.0296615,4.99559914 17.0806687,5 17.1316759,5 L17.1316759,5 C17.5449502,5 17.9118543,4.67810889 17.9866262,4.22104866 L17.9866262,4.22104866 C18.0700925,3.7086634 17.7541957,3.2189111 17.2812198,3.12775053 L17.2812198,3.12775053 L1.02035516,0.0144599522 C0.969927579,0.00440085502 0.919500003,0 0.869652054,0 L0.869652054,0 C0.458116662,0 0.0877348096,0.32189111 0.0135425136,0.778951339" id="path-19"></path>
        <linearGradient x1="3.27630961e-05%" y1="49.9972941%" x2="99.9986705%" y2="49.9972941%" id="linearGradient-21">
            <stop stop-color="#BFEDFF" offset="0%"></stop>
            <stop stop-color="#E8FFF6" offset="100%"></stop>
        </linearGradient>
        <polygon id="path-22" points="0 0 13.2901731 0 13.2901731 2.74675383 0 2.74675383"></polygon>
    </defs>
    <g id="20230112-2" stroke="none" stroke-width="1" fill="none" fill-rule="evenodd">
        <g id="切图" transform="translate(-270.000000, -283.000000)">
            <g id="编组-7" transform="translate(270.000000, 283.000000)">
                <g id="编组" transform="translate(78.493079, 84.000000) scale(-1, 1) translate(-78.493079, -84.000000) ">
                    <g transform="translate(19.986158, 153.000000)">
                        <mask id="mask-2" fill="white">
                            <use xlink:href="#path-1"></use>
                        </mask>
                        <g id="Clip-2"></g>
                        <path d="M1.67535684,5.04942737 L58,13 L56.2779132,7.59975889 L0,0 C0,0 1.48382155,4.45027125 1.67535684,5.04942737" id="Fill-1" fill="url(#linearGradient-3)" mask="url(#mask-2)"></path>
                    </g>
                    <g transform="translate(81.986158, 27.000000)">
                        <mask id="mask-5" fill="white">
                            <use xlink:href="#path-4"></use>
                        </mask>
                        <g id="Clip-4"></g>
                        <path d="M12.0870303,3.0293219 C12.6679967,4.19413069 15.6189094,5.01376761 17.4096393,5.26182332 L17.4096393,5.26182332 C20.2158937,5.65028793 24.6676364,6.13586869 26.7960967,7.68855705 L26.7960967,7.68855705 C28.9251403,9.24124541 27.7637907,10.0175896 25.3448472,9.24124541 L25.3448472,9.24124541 C23.9490113,8.79369206 21.3941589,8.82996436 18.943134,8.86682169 L18.943134,8.86682169 C17.1454045,8.8937334 15.4030886,8.9206451 14.2160739,8.75566465 L14.2160739,8.75566465 C11.4098194,8.36778508 8.31308175,7.20297629 8.21625402,4.7768276 L8.21625402,4.7768276 C6.5713491,5.55258674 4.4423055,8.17355278 3.08788379,10.0175896 L3.08788379,10.0175896 C1.73287879,11.8616264 -0.686648021,16.7139238 0.184801605,19.1412426 L0.184801605,19.1412426 C0.57211255,17.1029734 2.14702151,14.5680078 3.86250568,13.8998955 L3.86250568,13.8998955 C6.66817684,19.7233544 11.336907,22.3244292 14.5059738,23.6056604 L14.5059738,23.6056604 C17.747953,24.9155583 20.9899323,25.4491121 26.6992689,25.8381618 L26.6992689,25.8381618 C27.5701353,27.7787297 28.1505184,28.9435385 29.8444205,30.2446609 L29.8444205,30.2446609 C31.1994255,28.982151 33.7630273,25.9346929 36.7635205,22.8287311 L36.7635205,22.8287311 C38.21477,23.9935399 38.1185255,25.8381618 37.9242868,27.3908501 L37.9242868,27.3908501 C37.7312146,28.9435385 37.2470759,29.7198827 35.6984154,32.9229606 L35.6984154,32.9229606 C37.5375591,33.4079563 38.7951531,31.4673884 40.0539137,30.8846915 L40.0539137,30.8846915 C41.3109243,30.3025796 41.8434769,29.3805612 42.6659293,28.0700782 L42.6659293,28.0700782 C43.8529441,26.1792384 44.1655926,24.1877722 43.9241066,22.4408516 L43.9241066,22.4408516 C43.7042026,20.8554011 43.8972748,19.4554075 43.3437235,17.9764338 L43.3437235,17.9764338 C42.7627571,16.4231604 41.6504047,15.1132624 39.7628471,13.5114309 L39.7628471,13.5114309 C39.3761195,11.9587426 37.585973,9.92047344 35.5047599,10.2112369 L35.5047599,10.2112369 C35.4085155,8.94989696 34.2331668,5.37473548 31.7313947,3.22413924 L31.7313947,3.22413924 C29.0213847,0.894521666 26.2157136,0.214708601 22.3449373,0.0210613342 L22.3449373,0.0210613342 C22.0643702,0.00702044473 21.77972,0 21.49157,0 L21.49157,0 C17.8033665,0 13.6129421,1.13906716 12.0870303,3.0293219" id="Fill-3" fill="url(#linearGradient-6)" mask="url(#mask-5)"></path>
                    </g>
                    <g transform="translate(101.986158, 0.000000)">
                        <mask id="mask-8" fill="white">
                            <use xlink:href="#path-7"></use>
                        </mask>
                        <g id="Clip-6"></g>
                        <path d="M4.07883657,0 C3.66586528,0.00877072298 3.30038267,0.291772718 3.21502325,0.701657839 L3.21502325,0.701657839 L0.01825272,15.9475132 C-0.0809325259,16.4223017 0.23405577,16.8853959 0.721566282,16.9818738 L0.721566282,16.9818738 C0.782880797,16.9941529 0.842993068,17 0.903105338,17 L0.903105338,17 C1.32268898,17 1.69839067,16.7134897 1.78555346,16.2977574 L1.78555346,16.2977574 L4.98172287,1.05190204 C5.08090812,0.577113572 4.76652095,0.114019399 4.27840931,0.017541446 L4.27840931,0.017541446 C4.22430827,0.00701657839 4.17020722,0.00116942973 4.1167073,0 L4.1167073,0 L4.07883657,0 Z" id="Fill-5" fill="url(#linearGradient-9)" mask="url(#mask-8)"></path>
                    </g>
                    <g transform="translate(71.986158, 4.000000)">
                        <mask id="mask-11" fill="white">
                            <use xlink:href="#path-10"></use>
                        </mask>
                        <g id="Clip-8"></g>
                        <path d="M0.415589263,0.142057748 C-0.0040220624,0.408863687 -0.126233108,0.962769529 0.142872003,1.37879579 L0.142872003,1.37879579 L9.33639359,15.587555 C9.50917473,15.8549578 9.80055476,16 10.097955,16 L10.097955,16 C10.2647159,16 10.4338849,15.9540401 10.5849931,15.8579423 L10.5849931,15.8579423 C11.0046045,15.5911363 11.1262135,15.0372305 10.8565064,14.6212042 L10.8565064,14.6212042 L1.66298477,0.412444975 C1.49020363,0.145639036 1.1988236,3.39287735e-14 0.901423323,3.39287735e-14 L0.901423323,3.39287735e-14 C0.734662437,3.39287735e-14 0.566095477,0.0459598597 0.415589263,0.142057748" id="Fill-7" fill="url(#linearGradient-12)" mask="url(#mask-11)"></path>
                    </g>
                    <g transform="translate(58.986158, 25.000000)">
                        <mask id="mask-14" fill="white">
                            <use xlink:href="#path-13"></use>
                        </mask>
                        <g id="Clip-10"></g>
                        <path d="M0.0914631756,0.496488338 C-0.118185542,0.945027313 0.0446267599,1.49310674 0.456675702,1.72132143 L0.456675702,1.72132143 L9.78325575,6.8998526 C9.90536498,6.96783144 10.0347227,7 10.1624077,7 L10.1624077,7 C10.4668444,7 10.7606871,6.81852077 10.9090025,6.50290471 L10.9090025,6.50290471 C11.1180936,6.05497269 10.9547237,5.50628631 10.5432323,5.27867857 L10.5432323,5.27867857 L1.2166523,0.0995404491 C1.09510065,0.0321685598 0.965185357,1.7250669e-14 0.837500367,1.7250669e-14 L0.837500367,1.7250669e-14 C0.532506089,1.7250669e-14 0.238663339,0.181479234 0.0914631756,0.496488338" id="Fill-9" fill="url(#linearGradient-15)" mask="url(#mask-14)"></path>
                    </g>
                    <g transform="translate(86.986158, 2.000000)">
                        <mask id="mask-17" fill="white">
                            <use xlink:href="#path-16"></use>
                        </mask>
                        <g id="Clip-12"></g>
                        <path d="M0.847379958,0.00836020542 C0.309446773,0.0764361639 -0.0657944238,0.529678729 0.00964742528,1.01994506 L0.00964742528,1.01994506 L2.04132922,14.2284725 C2.10955489,14.6763406 2.53137323,15 3.01420107,15 L3.01420107,15 C3.06012219,15 3.1053873,14.9970142 3.15196444,14.9910426 L3.15196444,14.9910426 C3.69055364,14.9229667 4.06579484,14.4697241 3.99035299,13.9794578 L3.99035299,13.9794578 L1.9586712,0.771527529 C1.88978951,0.322465066 1.46665914,0 0.981863254,0 L0.981863254,0 C0.937254161,0 0.892645068,0.00298578765 0.847379958,0.00836020542" id="Fill-11" fill="url(#linearGradient-18)" mask="url(#mask-17)"></path>
                    </g>
                    <g transform="translate(48.986158, 39.000000)">
                        <mask id="mask-20" fill="white">
                            <use xlink:href="#path-19"></use>
                        </mask>
                        <g id="Clip-14"></g>
                        <path d="M0.0135425136,0.778951339 C-0.0705034467,1.2919653 0.245393439,1.7810889 0.718369325,1.87162077 L0.718369325,1.87162077 L16.9792339,4.98616874 C17.0296615,4.99559914 17.0806687,5 17.1316759,5 L17.1316759,5 C17.5449502,5 17.9118543,4.67810889 17.9866262,4.22104866 L17.9866262,4.22104866 C18.0700925,3.7086634 17.7541957,3.2189111 17.2812198,3.12775053 L17.2812198,3.12775053 L1.02035516,0.0144599522 C0.969927579,0.00440085502 0.919500003,0 0.869652054,0 L0.869652054,0 C0.458116662,0 0.0877348096,0.32189111 0.0135425136,0.778951339" id="Fill-13" fill="url(#linearGradient-21)" mask="url(#mask-20)"></path>
                    </g>
                    <g transform="translate(-0.013842, 24.000000)">
                        <path d="M101.045017,117.677204 C100.742436,117.677204 100.463086,117.477957 100.37597,117.173294 C98.7498144,111.500532 94.3359633,88.7168123 93.2865121,81.1772637 C92.1946647,73.34174 93.0425887,65.2977015 95.8773265,56.5864155 C95.9963844,56.2209354 96.386081,56.0205294 96.7548698,56.1398463 C97.1213356,56.2585839 97.3217013,56.6507076 97.2032242,57.0156085 C94.4346941,65.5224341 93.604774,73.3637499 94.6670021,80.9861252 C95.7118071,88.4920796 100.101266,111.155903 101.715806,116.791016 C101.821506,117.159972 101.607202,117.544566 101.237252,117.650561 C101.173367,117.668516 101.108321,117.677204 101.045017,117.677204" id="Fill-15" fill="#2565C1"></path>
                        <path d="M79.2944877,60.5188892 C79.1545222,60.5188892 79.0128143,60.4771863 78.8902719,60.3891467 C78.5772369,60.1667309 78.5046407,59.732325 78.7276563,59.420132 C79.6400458,58.1458747 81.4601786,57.6077906 83.0665882,57.1316818 C83.5619849,56.9857214 84.0289239,56.8472907 84.4221051,56.7001719 C85.7032835,56.221167 90.0259537,54.532197 91.8484097,52.9167863 C92.13531,52.662514 92.5761143,52.6856824 92.8322339,52.9747071 C93.0877726,53.261415 93.0622187,53.7004545 92.7741569,53.955306 C90.8262547,55.6819245 86.6267076,57.3610481 84.9111133,58.0022312 C84.4720513,58.166147 83.9818815,58.3109489 83.463254,58.4650182 C82.0723101,58.8762558 80.4955199,59.3430973 79.8624807,60.2275477 C79.7259997,60.4175279 79.5116957,60.5188892 79.2944877,60.5188892" id="Fill-17" fill="#2565C1"></path>
                        <path d="M65.1251543,92.7497786 C65.0165504,92.7497786 64.9062041,92.7242934 64.8034078,92.6704271 C64.4619151,92.4937687 64.3300803,92.0732638 64.5083767,91.7332688 C65.1373505,90.5302541 65.9504283,88.6339276 66.9249602,86.0952596 C67.0631834,85.7373092 67.4639147,85.5577547 67.8251535,85.6944478 C68.1846501,85.8322993 68.364108,86.2342695 68.2270463,86.5927992 C67.2327683,89.1806998 66.3970404,91.126259 65.7430935,92.3756103 C65.6193895,92.6142439 65.3766277,92.7497786 65.1251543,92.7497786" id="Fill-19" fill="#2565C1"></path>
                        <path d="M68.7822042,83.8014807 C68.7032195,83.8014807 68.6236541,83.7881589 68.5452501,83.7597778 C68.1834305,83.629456 67.9958418,83.230961 68.1270958,82.8701145 C69.4593819,79.1973576 70.4071984,76.2155956 71.1685877,73.8205711 C71.4868496,72.8197 71.7673615,71.9387249 72.0217387,71.1759081 C73.454498,66.8903493 75.1282768,63.6467854 76.7352671,62.0441173 C77.0076482,61.7724688 77.4490333,61.7724688 77.7214144,62.0441173 C77.9932147,62.3151865 77.9932147,62.7553845 77.7214144,63.027033 C76.2851705,64.4588348 74.6897956,67.5894532 73.3441517,71.6161061 C73.0915168,72.3725515 72.8127473,73.2471554 72.4973892,74.2404968 C71.7319345,76.6476846 70.7794719,79.6439268 69.4373127,83.3427481 C69.3350972,83.6254015 69.0673623,83.8014807 68.7822042,83.8014807" id="Fill-21" fill="#2565C1"></path>
                        <path d="M153.562702,110.622627 C153.193914,110.622627 152.886105,110.334181 152.867521,109.96233 C152.305916,98.8345886 150.851669,74.7476512 150.189591,70.2964389 C149.596625,66.3028009 148.213812,63.2550092 147.210241,61.8585391 C146.986064,61.546346 147.05808,61.1125194 147.370534,60.8883659 C147.683569,60.6647917 148.119146,60.7360343 148.343323,61.0482273 C149.806283,63.0847221 151.042742,66.5501226 151.568919,70.0925578 C152.236805,74.5872107 153.696279,98.7419154 154.259046,109.892246 C154.278211,110.275681 153.98318,110.602354 153.59871,110.621468 C153.586514,110.622047 153.574899,110.622627 153.562702,110.622627" id="Fill-23" fill="#2565C1"></path>
                        <path d="M108.6574,114.423678 C108.567381,114.423678 108.475619,114.406302 108.386181,114.368653 C108.031911,114.218639 107.866392,113.810876 108.01623,113.457559 L108.21195,112.995931 C116.385124,93.7361116 121.268818,81.3514895 122.728874,76.1872723 C125.091446,67.8350952 126.152512,58.2353044 125.197727,53.8576515 C125.116419,53.4823248 125.355115,53.112211 125.730874,53.0305427 C126.111278,52.9500328 126.479486,53.187508 126.560213,53.5622555 C127.708395,58.8266756 126.176905,69.1186198 124.071033,76.565495 C122.594716,81.7847369 117.691276,94.2243838 109.495451,113.53749 L109.299732,113.999698 C109.187062,114.264396 108.929201,114.423678 108.6574,114.423678" id="Fill-25" fill="#2565C1"></path>
                        <path d="M96.9132458,113.772649 C96.6594494,113.772649 96.4143645,113.633639 96.2912412,113.392109 C92.9245182,106.768867 86.5941264,87.5270035 85.7885986,80.2950144 C84.6839742,70.3801345 86.766615,62.4027048 92.5417908,54.4281712 C92.7665488,54.1165574 93.2032877,54.0470525 93.5139996,54.2712059 C93.8270346,54.4959386 93.8973078,54.9303444 93.6713883,55.241379 C88.114582,62.915883 86.1103451,70.5950206 87.173154,80.1415243 C87.9449972,87.0618996 94.2620312,106.325773 97.5340888,112.763089 C97.7083198,113.10598 97.5712581,113.523589 97.2280231,113.697352 C97.1269691,113.748322 97.0195267,113.772649 96.9132458,113.772649" id="Fill-27" fill="#2565C1"></path>
                        <path d="M100.155103,32.2542415 C100.049984,32.2542415 99.9442839,32.230494 99.8438107,32.1806821 C98.3076743,31.4138109 94.6395317,30.9562367 92.3884676,31.9843306 C92.0371018,32.1453504 91.6247552,31.9912811 91.4644627,31.6420188 C91.3041702,31.2933357 91.4574934,30.8809397 91.8076977,30.7210783 C94.4693661,29.5053211 98.6445208,30.0277665 100.467558,30.9377021 C100.811954,31.1091476 100.951339,31.5267564 100.77885,31.8702267 C100.656889,32.113494 100.410642,32.2542415 100.155103,32.2542415" id="Fill-29" fill="#2565C1"></path>
                        <path d="M87.9657887,43.1749158 C87.8972579,43.1749158 87.8269847,43.16449 87.7578731,43.1430594 C87.3908265,43.0283762 87.1858148,42.6385693 87.3002264,42.2719308 C87.806077,40.6611537 88.265466,37.6133621 87.813627,36.0825157 C87.7056038,35.7135603 87.9164233,35.3272287 88.2857929,35.219496 C88.6551626,35.110605 89.0425361,35.3214366 89.1511401,35.6898128 C89.7104215,37.5878769 89.1836632,40.9241141 88.631351,42.6872228 C88.5372663,42.9843564 88.2625621,43.1749158 87.9657887,43.1749158" id="Fill-31" fill="#2565C1"></path>
                        <path d="M95.9201874,37.3023854 C95.1367288,37.3023854 94.500205,36.6675736 94.500205,35.8862222 C94.500205,35.1048708 95.1367288,34.470059 95.9201874,34.470059 C96.7036459,34.470059 97.3401697,35.1048708 97.3401697,35.8862222 C97.3401697,36.6675736 96.7036459,37.3023854 95.9201874,37.3023854" id="Fill-33" fill="#2565C1"></path>
                        <path d="M108.795798,24.3393663 C108.474051,24.3393663 108.158112,24.332995 107.848562,24.3202524 C104.419697,24.1748713 97.3987694,22.7297477 92.8344989,18.235674 C92.5603755,17.9663424 92.5574716,17.5261444 92.8281104,17.2533375 C93.0981684,16.9793722 93.5395535,16.9764762 93.8130961,17.2469662 C98.0753663,21.4427479 104.678139,22.7940398 107.907801,22.9307328 C111.441205,23.0830645 116.102464,22.2495844 117.316854,21.9466587 C117.688546,21.8539854 118.06837,22.0792973 118.161874,22.4523071 C118.255378,22.8247378 118.028297,23.2018021 117.654862,23.2950546 C116.447441,23.5968218 112.336171,24.3393663 108.795798,24.3393663" id="Fill-35" fill="#2565C1"></path>
                        <path d="M119.267195,20.3799015 C119.129553,20.3799015 118.990168,20.3393569 118.868787,20.2547926 C116.453365,18.5750898 107.925921,15.8365951 102.129256,16.3590406 C101.743625,16.3885802 101.407359,16.1105605 101.372513,15.7288625 C101.338248,15.3465853 101.621083,15.0089071 102.004391,14.9741547 C107.91024,14.4424419 116.7966,17.1201197 119.666184,19.1143323 C119.981542,19.3338521 120.059365,19.7670996 119.839253,20.0821886 C119.703934,20.2756441 119.487307,20.3799015 119.267195,20.3799015" id="Fill-37" fill="#2565C1"></path>
                        <path d="M114.618771,9.63912913 C114.440475,9.63912913 114.262178,9.57136181 114.125697,9.43524797 C112.674353,7.98780757 110.874547,6.81722851 108.774483,5.95478803 C106.524581,5.03153073 101.581648,4.03413482 97.1828973,5.07728815 C96.8106238,5.16359012 96.4331233,4.93538223 96.343104,4.56121396 C96.254827,4.18820411 96.4859734,3.81287742 96.86057,3.72425862 C101.277906,2.67705084 106.407846,3.47925371 109.305888,4.66952583 C111.576117,5.60205045 113.529827,6.8751493 115.111845,8.45233226 C115.383645,8.72398074 115.383645,9.1641787 115.111845,9.43524797 C114.975364,9.57136181 114.797067,9.63912913 114.618771,9.63912913" id="Fill-39" fill="#2565C1"></path>
                        <path d="M132.470069,84.5933737 C132.096053,84.5933737 131.787084,84.2973985 131.774307,83.9220718 C131.677899,81.1111761 131.756884,78.948414 132.01068,77.4934439 C132.891127,72.4462268 134.471983,69.7030984 136.90599,66.6697869 C137.145267,66.3703365 137.584329,66.3205246 137.885168,66.5614751 C138.186007,66.8012671 138.23421,67.238569 137.993772,67.5385987 C135.701473,70.3946726 134.21296,72.9785188 133.384201,77.7320776 C133.146666,79.0926368 133.07407,81.1592504 133.166993,83.8745768 C133.180351,84.2580123 132.878931,84.5800519 132.494462,84.5927945 C132.486331,84.5933737 132.4782,84.5933737 132.470069,84.5933737" id="Fill-41" fill="#2565C1"></path>
                        <g transform="translate(0.000000, 119.160811)">
                            <mask id="mask-23" fill="white">
                                <use xlink:href="#path-22"></use>
                            </mask>
                            <g id="Clip-44"></g>
                            <path d="M12.5944016,2.74675383 C12.5676862,2.74675383 12.5409708,2.74501621 12.5136746,2.74212017 L0.617764932,1.38445698 C0.235618344,1.34101639 -0.0390858136,0.996966934 0.00447192815,0.614689757 C0.0480296699,0.233570996 0.391264675,-0.0346022364 0.776315112,0.00362548133 L12.6728055,1.36070946 C13.0549521,1.40472926 13.3296563,1.74877872 13.2855178,2.13105589 C13.2448639,2.48495189 12.9440251,2.74675383 12.5944016,2.74675383" id="Fill-43" fill="#2565C1" mask="url(#mask-23)"></path>
                        </g>
                        <path d="M156.304343,138.142355 C156.277627,138.142355 156.251493,138.140618 156.224197,138.137722 L120.107279,134.050831 C119.725132,134.006811 119.450428,133.663341 119.493405,133.281064 C119.536382,132.899366 119.879617,132.630613 120.264667,132.66942 L156.382166,136.756311 C156.764313,136.800331 157.039017,137.143801 156.995459,137.526078 C156.955386,137.880553 156.653966,138.142355 156.304343,138.142355" id="Fill-45" fill="#2565C1"></path>
                        <path d="M81.0475997,139.683743 L79.850633,135.990135 C80.1009448,136.09613 80.3802951,136.16158 80.6851993,136.16158 C80.7310801,136.16158 80.7775417,136.160422 80.8245841,136.157526 C82.0465239,136.089758 83.6668719,134.872843 84.2458995,134.064848 C84.6297884,133.529081 86.3523519,131.482739 87.2798414,130.393249 C87.8733882,130.06368 88.6603314,129.692987 89.4344977,129.330403 C89.2486513,129.616532 89.0837127,129.88065 88.9472318,130.099012 C88.8519855,130.250185 88.7776469,130.369502 88.729443,130.441903 C88.6202583,130.60466 88.1771309,131.098724 87.7868535,131.534868 C87.1816913,132.209645 86.4952213,132.974779 86.1519863,133.472897 C85.7582243,134.043417 85.7320896,134.676491 86.0811323,135.16708 C86.495802,135.749763 87.3454684,135.968704 88.252631,135.721961 C89.0738396,135.498387 89.706298,134.850833 90.3759257,134.166209 C90.8364762,133.694734 91.3127075,133.207041 91.8650197,132.847932 C92.2634278,132.583234 92.7117822,132.316799 93.1456173,132.05963 C93.903522,131.610165 94.627742,131.180393 95.1359157,130.734982 C96.4292902,131.08772 97.7720302,131.159541 98.968997,130.959135 L106.233848,131.66519 C106.256498,131.667507 106.279728,131.668665 106.301798,131.668665 C106.428986,131.668665 106.542817,131.625224 106.646775,131.564408 C107.234514,132.268724 107.969769,132.524734 108.842666,132.524734 C109.196936,132.524734 109.572113,132.48419 109.968779,132.41816 L110.080867,132.399625 C110.802183,132.279729 111.683792,132.134927 112.660647,132.006343 L81.0475997,139.683743 Z M103.006509,129.955368 L102.491947,129.904977 C102.620878,129.871383 102.749228,129.836631 102.87874,129.804774 C102.913005,129.859799 102.955402,129.91019 103.006509,129.955368 L103.006509,129.955368 Z M79.1113129,133.708056 L78.4591083,131.69415 C78.5595815,131.620012 78.6408893,131.522705 78.6902547,131.406863 C78.830801,131.185026 79.4835864,130.323165 80.0115062,129.62522 C81.1776922,128.084527 81.8990084,127.122463 82.0807893,126.759299 C82.3020627,126.317943 82.8038479,125.984319 83.4897371,125.619418 C84.3423073,125.166478 87.1857567,123.647216 87.990123,123.112607 C88.310708,122.898879 88.3972427,122.467948 88.1841001,122.148805 C87.9703768,121.828503 87.5377032,121.74278 87.217699,121.955349 C86.619506,122.352686 84.4822728,123.516894 82.8334671,124.393235 C82.8148825,124.403082 82.7992017,124.413508 82.7800363,124.423354 C82.9757557,124.28029 83.172056,124.136646 83.3857793,123.990686 C83.406687,123.976785 83.4264332,123.961725 83.4450178,123.945508 C83.5205179,123.881795 85.2976738,122.365429 86.1345632,121.53079 C86.8297447,120.836899 87.7618804,120.513122 88.3327772,120.548454 C88.6365199,120.568726 89.2602667,120.671246 89.8631059,120.77029 C90.7441338,120.915671 91.6559425,121.065107 92.1495969,121.065107 C92.7112014,121.065107 102.171943,121.015295 103.665683,120.908721 C103.770222,120.901191 103.864887,120.868176 103.950841,120.820681 C104.594334,121.825028 105.155358,123.010087 105.42832,123.917706 C105.773297,125.065696 105.79827,126.931903 105.649012,128.033557 C105.51137,127.942621 105.344108,127.895126 105.167554,127.924665 C103.705175,128.14071 101.398938,128.666052 99.7936902,129.306076 C98.5281926,129.809987 96.750456,129.803037 95.152758,129.290438 C94.8856039,129.204136 94.5928959,129.286383 94.4099533,129.498952 C94.0713645,129.893393 93.2385405,130.387457 92.4330126,130.864725 C91.9840775,131.13116 91.5200424,131.406863 91.0978227,131.687779 C90.4223873,132.126818 89.867752,132.695021 89.378163,133.195457 C88.8444355,133.74165 88.340908,134.257145 87.8855844,134.381095 C87.4918224,134.488828 87.2566106,134.404264 87.2316375,134.403684 C87.2322183,134.390363 87.245576,134.339392 87.3001683,134.26062 C87.5934571,133.834902 88.2764425,133.073244 88.8258508,132.461021 C89.3833899,131.838952 89.7324326,131.446249 89.8892405,131.212828 C89.9420906,131.132319 90.0245599,131.001997 90.1290985,130.835764 C90.5733874,130.125655 91.6147079,128.463908 92.3946818,127.802453 C92.6757744,127.564398 92.722236,127.148527 92.4998012,126.854869 C92.2785278,126.561789 91.8650197,126.490547 91.5572116,126.694428 C91.0078033,127.059329 89.9670637,127.545864 88.9611702,128.01618 C88.0778192,128.429735 87.164849,128.85719 86.4830251,129.245259 C86.4133327,129.285225 86.3506096,129.337353 86.2983403,129.39817 C86.1897363,129.525596 83.6395757,132.52068 83.1116559,133.256853 C82.6807246,133.858071 81.4088386,134.732674 80.7473417,134.769744 C80.4679914,134.781907 80.3129258,134.696764 80.2751758,134.634209 C80.2420719,134.580343 80.2734334,134.458709 80.3535797,134.322016 C80.5812415,133.936264 81.7631082,132.35966 82.8061709,130.969561 C84.385865,128.864141 85.3609777,127.556289 85.5845741,127.136364 C85.8947052,126.557156 86.3616442,126.220636 87.1706567,125.766537 C87.8129882,125.40627 90.7923377,124.224686 91.8859274,123.799547 C92.2442624,123.660537 92.421978,123.257409 92.2825932,122.899458 C92.1426277,122.541508 91.7389926,122.366587 91.3800768,122.504438 C90.968311,122.6643 87.3321107,124.081621 86.4870905,124.554834 C85.6571703,125.021097 84.8702271,125.518636 84.3550842,126.481859 C84.1645917,126.838072 82.7928132,128.666631 81.6899312,130.137239 C80.2774988,132.021403 79.4011171,133.195457 79.1519668,133.61712 C79.1345437,133.647239 79.1275745,133.677937 79.1113129,133.708056 L79.1113129,133.708056 Z M77.7296613,129.442769 C77.7639267,129.406279 77.7970306,129.368051 77.8231653,129.322873 C78.0136578,128.997938 78.3940621,128.602918 78.7959548,128.185309 C79.0468474,127.924665 79.3081939,127.653017 79.5567634,127.367468 C79.777456,127.112616 80.2583334,126.566423 81.0017189,125.881799 C80.945965,125.966943 80.8809187,126.044557 80.8344572,126.13723 C80.6968147,126.412933 79.6148404,127.841839 78.8993319,128.787685 C78.4666583,129.359363 78.1576887,129.767126 77.9335116,130.070051 L77.7296613,129.442769 Z M102.26777,119.02282 C102.325266,119.012974 102.404251,119.000231 102.493689,118.985751 C102.533182,119.080162 102.588936,119.168781 102.670824,119.240602 C102.772459,119.329221 102.875836,119.439271 102.979213,119.548741 C102.635978,119.560325 102.191689,119.570751 101.681192,119.580597 C101.806639,119.30837 102.025589,119.064523 102.26777,119.02282 L102.26777,119.02282 Z M108.349592,130.276829 C108.231696,130.67764 108.142838,130.868779 108.079534,130.955081 C108.070823,130.958556 108.065596,130.965507 108.056884,130.969561 C107.837353,130.850244 107.664284,130.656789 107.509218,130.38572 L108.349592,130.276829 Z M106.699625,118.319662 L106.649098,117.999939 C107.150883,118.315607 107.952346,119.324587 108.628943,122.478374 C109.14757,124.894829 109.17777,126.92669 108.718962,128.826492 L106.848883,129.069759 C107.215349,127.89976 107.248453,125.129408 106.76351,123.518631 C106.319801,122.043389 105.26222,120.00284 104.118684,118.725687 C105.349916,118.531073 106.699625,118.319662 106.699625,118.319662 L106.699625,118.319662 Z M92.5311627,47.8903048 C93.1316788,47.8903048 93.7397449,47.832384 94.3983379,47.7414484 C95.2863351,47.6180771 96.1075437,47.4761712 96.8973908,47.2827157 C96.1894323,48.2899582 95.1841196,48.8697452 93.8872604,49.0006462 C92.6374436,49.1303888 91.4735808,48.6357453 90.7429723,47.6922157 C91.3574268,47.8260127 91.9428428,47.8903048 92.5311627,47.8903048 L92.5311627,47.8903048 Z M154.839641,118.197449 C154.648568,117.016444 154.46911,115.90089 154.46911,114.909865 C154.46911,114.525271 154.157237,114.214237 153.772186,114.214237 C153.387136,114.214237 153.074681,114.525271 153.074681,114.909865 C153.074681,116.012098 153.272143,117.235385 153.463217,118.418127 C153.783221,120.400756 154.11426,122.451151 153.535813,123.929869 C152.445708,126.721651 150.066874,128.262923 146.265155,128.641725 C142.258423,129.041378 120.257117,130.286675 117.201687,130.286675 C114.311776,130.286675 111.627458,130.733244 109.852044,131.02864 L109.739375,131.047175 C109.670844,131.058759 109.61509,131.063393 109.550624,131.07266 C109.709175,130.64868 109.833459,130.147086 109.954259,129.606685 L109.954259,129.606106 C110.583814,127.363992 110.596591,125.005458 109.99259,122.187612 C109.561659,120.180077 109.018639,118.716419 108.349592,117.771152 C110.517025,117.502979 113.706614,117.125335 116.813733,116.756959 C121.433176,116.210187 125.797081,115.692954 127.135756,115.500657 C129.671978,115.138073 130.542552,114.844994 132.383012,114.101291 C133.108393,113.80937 134.168298,113.589271 135.11205,114.202073 C136.00992,114.786494 136.742271,114.48994 137.097702,114.05785 C137.706929,113.316464 137.503079,112.001663 136.642959,111.127059 C135.250854,109.710896 134.771138,108.697282 135.086496,107.840054 C135.726504,106.101852 135.649842,103.555075 134.828053,99.3222237 C134.328591,96.7528577 133.816352,92.815982 133.49054,89.048235 C133.457436,88.666537 133.12814,88.3885172 132.73612,88.41574 C132.352812,88.4487549 132.068815,88.7852746 132.101919,89.168131 C132.431797,92.9798978 132.951586,96.9729567 133.459759,99.5869217 C134.219406,103.499471 134.317556,105.897391 133.778602,107.36047 C133.104328,109.190767 134.423256,110.854831 135.6481,112.100128 C136.057543,112.517158 136.088324,112.958514 136.041862,113.124747 C136.002951,113.111425 135.946035,113.085361 135.872858,113.037865 C134.744422,112.304009 133.319794,112.223499 131.859157,112.812554 C130.100586,113.523821 129.331066,113.782727 126.938294,114.125039 C125.6153,114.31444 121.057418,114.854261 116.649375,115.376707 C112.704205,115.844127 108.623716,116.327766 106.664198,116.582617 C106.414467,116.615053 106.212359,116.780707 106.117694,117.003702 C105.961466,117.028608 105.762843,117.059306 105.536924,117.095216 C106.076459,114.680499 107.235095,109.602005 108.516854,103.983688 C110.379964,95.8180163 112.491062,86.5622749 113.336663,82.7070675 C114.050429,79.4519194 115.351935,74.5049052 116.730102,69.2677079 C118.104203,64.0449908 119.525347,58.645036 120.361656,54.89119 C121.408203,50.1932352 120.963333,46.9971663 120.10089,44.8575725 C121.502288,45.8318001 124.127949,48.412171 125.349888,49.8352847 C125.42655,49.9239035 125.5247,49.99225 125.634466,50.033953 C129.142897,51.3441211 134.302456,53.6285169 138.071072,55.2960563 C139.787247,56.0553978 141.142764,56.6554571 141.958165,56.9942937 C143.241666,57.5277441 143.985052,58.5158727 144.252787,59.2624716 C144.355002,59.5468626 144.622737,59.723521 144.909057,59.723521 C144.98688,59.723521 145.065865,59.7107785 145.143688,59.6829765 C145.506088,59.5538131 145.694838,59.1558973 145.565327,58.7944716 C145.089095,57.4651896 143.940913,56.312566 142.494796,55.7113483 C141.693334,55.3783038 140.276255,54.7516009 138.636161,54.0252743 C134.911103,52.3768487 129.831109,50.1283639 126.290155,48.7944482 C125.006653,47.3313692 121.957612,44.2870528 120.44006,43.4222955 C120.117733,43.2392658 119.717001,43.3446816 119.516055,43.6493449 C118.862108,42.5216273 118.122788,41.8097808 117.600095,41.4112858 C117.293449,41.1784443 116.856129,41.2375235 116.622659,41.5421868 C116.389771,41.8474293 116.447848,42.2835728 116.753333,42.5164144 C117.406118,43.0139539 118.964324,44.5430626 119.430101,47.8752454 C116.806183,44.6670131 115.595858,40.2071127 115.168992,38.2563407 C115.205581,38.2476526 115.24275,38.2441773 115.279339,38.2343308 C115.964066,38.053618 116.741717,37.4773061 117.486264,36.6808954 C117.747611,36.7741478 118.000826,36.819326 118.243007,36.819326 C119.073508,36.819326 119.795986,36.3461132 120.452256,35.916341 C120.87738,35.6371628 121.317022,35.3492965 121.754923,35.2079698 C123.64591,34.5986432 125.245931,32.7469157 126.381336,29.8531933 C127.145629,27.9053173 127.028313,26.3756294 126.915063,24.8969118 C126.872086,24.3420307 126.827948,23.7686149 126.827948,23.1645011 C126.827948,20.5951351 125.67512,18.3605512 123.09534,15.9423585 C122.638274,14.2250072 121.396588,11.9203392 119.545093,11.5340076 C118.806354,7.74251304 117.097148,5.07004805 113.901752,2.67038995 C111.321973,0.733518919 107.221737,-0.262718573 103.198744,0.0599001965 C101.380354,0.208177405 95.2503274,0.94029612 92.0166006,4.17633035 C89.1371435,5.30520643 85.933036,8.43698325 84.2255725,10.9924483 C82.4077628,13.7124083 80.3872643,17.6359622 81.0853498,20.8864767 C81.1666575,21.2618033 81.5337041,21.4981201 81.9135276,21.4205063 C82.0383931,21.3938627 82.1400279,21.327833 82.2277241,21.2479023 C81.9379199,22.4138477 81.8060852,23.5774763 81.8455775,24.7312583 C81.9675392,28.2997579 82.1719702,30.8963466 82.8102363,32.8088909 C83.4014601,34.5766333 83.5501372,35.2629946 83.5501372,37.0707022 C83.5501372,38.9815089 84.4654305,41.4402462 85.9980823,43.6476073 L86.5788521,44.4891963 C88.4036311,47.1367554 91.7999735,52.0646557 93.2327328,53.3504971 C94.6097382,54.5865267 95.7172664,55.4333285 97.6802686,55.4333285 C97.9613612,55.4333285 98.2616193,55.4159523 98.5816235,55.3794622 C101.606854,55.0365712 105.755293,53.0753734 107.828642,51.0076014 C109.868306,48.9734234 111.331846,47.2161068 112.322058,44.7469438 C112.464928,44.390731 112.290697,43.9858647 111.933523,43.8433796 C111.578673,43.7014736 111.170392,43.8740776 111.027522,44.2308696 C110.125587,46.4799337 108.757873,48.1150374 106.843075,50.0246857 C104.992162,51.8717795 101.13643,53.6910713 98.4242348,53.9980515 C96.4995634,54.2169921 95.6859048,53.6829624 94.1654492,52.3177695 C93.7577488,51.9517102 93.1409711,51.2120618 92.4347549,50.2945965 C92.7779899,50.3681559 93.1322596,50.4104381 93.49466,50.4104381 C93.6706333,50.4104381 93.8489296,50.4011708 94.0283875,50.3837945 C96.2417016,50.1602203 97.9166419,48.8425225 98.7808275,46.6791812 C99.0677279,46.5627604 99.3540474,46.4388099 99.6415285,46.2957456 C99.9853443,46.1243001 100.12531,45.706112 99.9528212,45.3626417 C99.7809133,45.0197507 99.3621782,44.8807408 99.0172009,45.0521863 C97.5292684,45.7941516 96.0175244,46.1138743 94.2066839,46.3646713 C92.5915628,46.5876663 91.4004038,46.5865079 89.7428865,45.9441664 C89.5866594,45.8833496 89.4257861,45.8920377 89.2782706,45.940112 C88.6887892,45.0967853 88.1498347,44.3148547 87.727615,43.7020528 L87.1439412,42.8564094 C85.7663551,40.8726225 84.9439849,38.7092812 84.9439849,37.0707022 C84.9439849,36.4868607 84.9254003,36.0066974 84.8864887,35.5641826 C85.0944043,35.6834995 85.33252,35.7570588 85.5892202,35.7570588 C86.3726788,35.7570588 87.0103642,35.1222471 87.0103642,34.3408957 C87.0103642,33.5595443 86.3726788,32.9247325 85.5892202,32.9247325 C85.137962,32.9247325 84.7395539,33.1396186 84.479369,33.4680294 C84.3817996,33.1344057 84.2697111,32.7793513 84.1326494,32.3698514 C83.9311222,31.7663168 83.7789605,31.0689506 83.6575796,30.2829655 C84.5583537,30.5227576 85.5061702,31.0469407 85.9951784,31.6041386 C86.1328209,31.7616831 86.3256365,31.842193 86.5201944,31.842193 C86.68281,31.842193 86.8460063,31.7854307 86.9784218,31.6701683 C87.268226,31.4170545 87.2978453,30.9774357 87.0440488,30.6889902 C86.2681403,29.8045398 84.8104078,29.0446191 83.4792832,28.8233617 C83.36371,27.6267183 83.2922753,26.2597878 83.2382637,24.6837633 C83.164506,22.5024665 83.7615374,20.2620906 85.0148388,18.0257691 C85.2024275,17.690987 85.0822081,17.2670068 84.7459424,17.0799227 C84.4119997,16.8928386 83.9862954,17.0133138 83.7975451,17.3480959 C83.2086445,18.3999374 82.7597093,19.4552541 82.4356397,20.5099916 C81.8937814,17.7460117 83.7324989,14.235433 85.3847892,11.7639531 C86.9586756,9.40947322 90.0390791,6.38716669 92.6502206,5.42278563 C92.7483707,5.38687474 92.83839,5.32779554 92.9109863,5.25191931 C95.1864427,2.88411765 99.7756864,1.73323166 103.311994,1.44594457 C106.951679,1.14649411 110.779533,2.06627617 113.063701,3.7813106 C116.092997,6.05528059 117.648299,8.59974065 118.265657,12.2881362 C118.323154,12.6298688 118.630962,12.9044134 118.970712,12.8685025 C120.171163,12.8563391 121.377422,14.7138587 121.791511,16.4694376 C121.823454,16.6049723 121.894888,16.7277643 121.997685,16.821596 C124.374195,19.009264 125.4341,20.9652489 125.4341,23.1645011 C125.4341,23.821902 125.480562,24.4225405 125.5247,25.003486 C125.635627,26.4474512 125.731454,27.6939064 125.083315,29.3463864 C124.119237,31.8033861 122.784628,33.4147423 121.326315,33.8856383 C120.708956,34.0848858 120.165356,34.4405194 119.686801,34.7544501 C119.221605,35.0591134 118.858043,35.2873213 118.533392,35.3788361 C119.396997,34.1462818 120.110763,32.6907325 120.412764,31.3510248 C120.638102,30.3501536 121.272303,27.5062431 119.475401,25.9429611 C120.755999,24.2238723 122.624916,21.6846251 122.941436,19.5797838 C122.998351,19.1998234 122.735843,18.8459274 122.355439,18.789165 C121.979681,18.7347195 121.620184,18.9936254 121.563269,19.3735858 C121.292049,21.1749222 119.481789,23.6052783 118.28308,25.2131593 L117.936361,25.68058 C117.936361,25.68058 117.93578,25.68058 117.93578,25.6811592 C117.534468,26.2140304 116.571552,27.2183768 115.455893,28.380847 C114.242664,29.6458369 112.885405,31.0608416 111.818531,32.3183019 C110.948538,31.7095544 110.122102,30.4833714 109.60754,29.4072033 L110.146494,29.3996735 C111.257507,29.3863518 112.216358,29.3747676 113.19844,29.3359607 C113.58291,29.3209013 113.882587,28.9977033 113.868068,28.6142677 C113.852968,28.2308321 113.526575,27.9510747 113.144428,27.9470203 C112.18035,27.9846688 111.276092,27.9956737 110.129652,28.0095747 L108.565058,28.0304262 C108.561573,28.0310054 108.558669,28.032743 108.555185,28.032743 C108.5517,28.032743 108.548796,28.0310054 108.545312,28.0310054 C106.272178,28.1381589 98.9132431,27.3185798 94.1910031,24.7173573 C90.9090724,22.9090704 89.1865089,20.6530559 87.4267762,18.106279 C87.2089875,17.7900315 86.7751524,17.7089424 86.4574712,17.927883 C86.1409516,18.1456651 86.0608054,18.5783334 86.2791749,18.8945809 C88.1405424,21.5890558 89.9693868,23.9788673 93.51731,25.934273 C98.1071345,28.4630945 105.0212,29.4292131 108.093473,29.4303716 C108.70212,30.936312 110.047183,33.1286137 111.707604,33.845673 C111.993343,33.9678858 112.327866,33.8879551 112.525328,33.6458463 C113.599171,32.32699 115.120788,30.7411189 116.462948,29.3417528 C117.326552,28.442243 118.100719,27.6348272 118.623412,27.0353471 C119.177466,27.5577926 119.60259,28.6102133 119.052601,31.0457822 C118.445696,33.7390987 116.049439,36.593435 114.922746,36.8899894 C114.419218,37.0243656 113.44701,37.1361527 112.599666,36.3941875 C112.311604,36.1416529 111.8708,36.1677172 111.616423,36.4573211 C111.362046,36.7457666 111.390503,37.1848062 111.679727,37.4384992 C112.272693,37.9586279 112.994009,38.2551823 113.762368,38.3403258 C114.218853,40.5123553 115.775897,46.4996267 119.559613,50.0582797 C119.545093,51.3626558 119.387124,52.8558536 119.000912,54.5894227 C118.170411,58.3172044 116.752752,63.7044165 115.382135,68.9143911 C115.298504,69.2335346 115.214292,69.5515197 115.131823,69.8677672 C114.921584,69.6534603 114.595192,69.5822177 114.31468,69.7293365 C107.731653,73.1790985 99.5561553,73.58744 95.7039087,70.6595443 C95.3972622,70.4267028 94.9599424,70.4852028 94.7276345,70.7910245 C94.4935842,71.0962671 94.5528227,71.5324106 94.8588885,71.7646729 C96.6778598,73.147242 99.6287516,74.0079449 103.133117,74.0079449 C106.666521,74.0079449 110.763853,73.127549 114.826919,71.0261829 C113.657248,75.4773952 112.597343,79.5712362 111.975339,82.4093547 C111.130899,86.2599284 109.019801,95.5121945 107.157852,103.67555 C105.834278,109.476896 104.640215,114.711776 104.123911,117.025132 C104.101841,117.124756 104.105326,117.223801 104.125072,117.317632 C103.23359,117.45838 102.355466,117.597969 102.03372,117.652994 C101.061511,117.818647 100.38956,118.732637 100.224041,119.604924 C97.0309679,119.650681 92.7373361,119.675008 92.1495969,119.675008 C91.7697734,119.675008 90.8382185,119.521518 90.0896061,119.399305 C89.7939943,119.350073 89.5088362,119.303736 89.2463282,119.263771 C89.3113745,119.146191 89.3549322,119.01587 89.3415745,118.871647 C88.8792817,113.803578 87.167172,104.68453 85.8453398,99.1426693 C85.1675813,96.2999172 84.2720341,93.6193433 83.4810255,91.2538585 C82.7260247,88.9920518 82.0122585,86.8565125 81.6080427,84.9514979 C81.0168189,82.1643498 81.1109036,78.684469 81.2102153,74.9995487 C81.3048808,71.4797026 81.4036117,67.8405398 80.8507187,64.7973817 C80.7827686,64.4203174 80.420949,64.1648868 80.0411255,64.2372878 C79.6618827,64.3056343 79.4109902,64.66706 79.479521,65.0452827 C80.0062793,67.9465348 79.9098715,71.5132967 79.8169483,74.9624794 C79.7199597,78.5651522 79.6194865,82.2911963 80.2443949,85.238785 C80.6648724,87.2214134 81.3908347,89.3934429 82.1591933,91.6934772 C82.7411247,93.4363136 83.3346715,95.2260658 83.8695606,97.1119666 C83.6372526,97.0725805 83.3921678,97.1391894 83.2266483,97.3297487 C80.448826,100.526976 75.5047319,108.226965 73.3210371,112.124455 C73.1334484,112.459237 73.2536678,112.883217 73.5899335,113.070301 C73.697376,113.12996 73.8141107,113.158341 73.9291032,113.158341 C74.1736073,113.158341 74.4105614,113.029757 74.5383308,112.802128 C76.6720794,108.993257 81.4628502,101.523793 84.1982764,98.3387288 C84.2964265,98.7128971 84.398642,99.0806941 84.4898228,99.4641296 C85.8000397,104.960233 87.4970493,113.990662 87.9535345,118.997335 C87.9587614,119.058731 87.9819922,119.112018 88.0023191,119.167043 C87.0353373,119.244657 85.933036,119.765365 85.1489967,120.547874 C84.4056112,121.28926 82.7992017,122.667196 82.5674745,122.865285 C80.2385873,124.459844 78.9330165,125.962309 78.502666,126.456953 C78.2709389,126.724547 78.0252732,126.97824 77.7906422,127.222666 C77.5879535,127.433497 77.3928148,127.638537 77.2116146,127.842418 L66.5434525,94.9103976 C66.4586601,94.6474372 66.2257713,94.4603531 65.9499056,94.4325511 L4.51142051,88.3224876 C4.27272408,88.29874 4.04331998,88.3972054 3.89638519,88.5819727 C3.74886964,88.7673192 3.70589267,89.0146409 3.78255429,89.2376359 L19.0109216,133.927576 C19.1340448,134.290739 19.5295491,134.485932 19.8942726,134.361981 C20.2589961,134.23861 20.4541348,133.84359 20.32985,133.480427 L5.45052542,89.8127893 L65.3575204,95.7711004 L79.9209061,140.725738 C80.0155716,141.018238 80.2873719,141.20706 80.5829838,141.20706 C80.6381569,141.20706 80.6933301,141.200688 80.7485032,141.187367 L114.531307,132.982888 C114.905323,132.891373 115.134146,132.516046 115.043546,132.142457 C115.006957,131.990705 114.914034,131.871967 114.801946,131.779294 C114.964561,131.766551 115.126596,131.753809 115.292116,131.742804 C115.275273,131.794353 115.251462,131.843586 115.246815,131.900348 L115.113238,133.503595 L79.8413406,142.597738 L21.3386473,134.760476 C20.9599853,134.713561 20.6062965,134.975942 20.5551887,135.356481 C20.504081,135.7376 20.7718159,136.087442 21.1528009,136.138412 L79.7908137,143.993629 C79.8221752,143.997683 79.8523753,144 79.8837368,144 C79.9429754,144 80.0010524,143.99247 80.0585486,143.97799 L115.941416,134.725724 C116.227736,134.651585 116.436813,134.405422 116.461786,134.110605 L116.636017,132.01619 C116.64589,131.898611 116.618013,131.790299 116.574455,131.688937 C116.782952,131.684304 116.990867,131.677353 117.201687,131.677353 C120.27396,131.677353 142.379804,130.426264 146.403378,130.024873 C150.716756,129.595101 153.553236,127.714413 154.834995,124.434359 C155.550504,122.603483 155.188684,120.363686 154.839641,118.197449 L154.839641,118.197449 Z" id="Fill-47" fill="#2565C1"></path>
                    </g>
                </g>
            </g>
        </g>
    </g>
</svg>